<svg xmlns="http://www.w3.org/2000/svg" xmlns:xlink="http://www.w3.org/1999/xlink" width="85" height="85" viewBox="0 0 85 85">
  <defs>
    <linearGradient id="linear-gradient" y1="0.5" x2="1" y2="0.5" gradientUnits="objectBoundingBox">
      <stop offset="0" stop-color="#fefff2"/>
      <stop offset="1" stop-color="#bfc288"/>
    </linearGradient>
  </defs>
  <g id="Grupo_62557" data-name="Grupo 62557" transform="translate(-3361.646 -176.185)">
    <circle id="Elipse_4481" data-name="Elipse 4481" cx="42.5" cy="42.5" r="42.5" transform="translate(3361.646 176.185)" fill="url(#linear-gradient)"/>
    <path id="Trazado_131797" data-name="Trazado 131797" d="M3404.146,176.185a42.5,42.5,0,0,0-41.952,49.3h83.9a42.494,42.494,0,0,0-41.951-49.3Z" fill="#bfc288"/>
    <g id="Grupo_62557-2" data-name="Grupo 62557">
      <path id="Trazado_131798" data-name="Trazado 131798" d="M3393.377,202.3q0,.186-.2.186c-.236,0-1.165-.046-2.792-.139q-.056,2.346-.056,3.274,0,1.094.089,3.292t.088,3.293c0,.117-.028.192-.084.222a1.089,1.089,0,0,1-.259.047,13.456,13.456,0,0,1-1.633.074,12.854,12.854,0,0,1-1.678-.074.273.273,0,0,1-.26-.288q0-1.094.093-3.283t.092-3.283q0-.725-.074-3.228-1.854.186-2.959.186c-.1,0-.148-.031-.148-.093a5.564,5.564,0,0,1,.13-.714q.149-.649.167-.789.027-.435.065-.872.064-.694.223-.7l.13.009a37.377,37.377,0,0,0,4.442.2q.835,0,3.079-.176l1.215-.093a.522.522,0,0,1,.214.023.358.358,0,0,1,.037.181c0,.167-.007.4-.019.7-.012.328-.018.559-.018.695a5.551,5.551,0,0,0,.059.682A5.642,5.642,0,0,1,3393.377,202.3Z" fill="#fffffa"/>
      <path id="Trazado_131799" data-name="Trazado 131799" d="M3398.136,205.618q0,1.094.055,3.292t.056,3.293c0,.124-.028.2-.084.232a2.157,2.157,0,0,1-.241.037,13.958,13.958,0,0,1-1.613.074,11.881,11.881,0,0,1-1.726-.074c-.18-.037-.269-.133-.269-.288q0,.148.083-1.632.168-3.756.167-4.934,0-.993-.064-2.977t-.066-2.977c0-.137.072-.205.214-.205.192,0,.481.01.868.028s.674.028.867.028.473-.009.848-.028.657-.028.849-.028.269.068.269.205q0,.991-.107,2.977T3398.136,205.618Z" fill="#fffffa"/>
      <path id="Trazado_131800" data-name="Trazado 131800" d="M3411.138,204.421a5.437,5.437,0,0,1-1.178,3.636,4.334,4.334,0,0,1-3.478,1.475q-.37,0-1.118-.042c-.5-.028-.87-.042-1.117-.042-.266,0-.4.115-.4.344q0,.426.083,1.27c.055.563.084.983.084,1.261,0,.143-.066.214-.2.214q-.565,0-1.7-.033t-1.7-.032a.238.238,0,0,1-.269-.269q0-1.029.032-3.094t.033-3.092q0-2.913-.25-6.122l-.01-.129c-.012-.118.08-.189.278-.214q.724-.093,3.191-.093,1.455,0,2.792.038a5.075,5.075,0,0,1,3.543,1.381A4.758,4.758,0,0,1,3411.138,204.421Zm-3.7.149a1.886,1.886,0,0,0-2.1-2.161q-1.484,0-1.558.167a14.962,14.962,0,0,0-.065,2.142q0,.288.023.849t.024.849c0,.123.555.185,1.669.185A1.787,1.787,0,0,0,3407.437,204.57Z" fill="#fffffa"/>
      <path id="Trazado_131801" data-name="Trazado 131801" d="M3425.291,205.979a6.8,6.8,0,0,1-1.846,4.851,6.683,6.683,0,0,1-9.524-.018,7.243,7.243,0,0,1,0-9.683,6.618,6.618,0,0,1,9.506,0A6.821,6.821,0,0,1,3425.291,205.979Zm-3.515-.018a3.488,3.488,0,0,0-.843-2.365,2.847,2.847,0,0,0-2.254-1.02,2.816,2.816,0,0,0-2.217,1.057,3.679,3.679,0,0,0-.056,4.711,2.882,2.882,0,0,0,2.273.993,2.852,2.852,0,0,0,2.225-1.048A3.439,3.439,0,0,0,3421.776,205.961Z" fill="#fffffa"/>
    </g>
    <g id="Grupo_62558" data-name="Grupo 62558">
      <path id="Trazado_131802" data-name="Trazado 131802" d="M3412.641,242.926H3395.65v-.577q.252,0,.686-.018t1.424-.145a2.194,2.194,0,0,0,1.408-.6,2.812,2.812,0,0,0,.522-1.587l.072-1.66V221.209l-.072-1.659a3.007,3.007,0,0,0-.486-1.606,2.336,2.336,0,0,0-1.5-.6l-1.949-.144v-.577h16.883v.577l-1.948.108a2.347,2.347,0,0,0-1.5.523,2.937,2.937,0,0,0-.487,1.642l-.072,1.659v17.28l.072,1.659a1.9,1.9,0,0,0,2.056,2.164l1.876.109Z" fill="#3f3e1e"/>
    </g>
    <ellipse id="Elipse_4603" data-name="Elipse 4603" cx="14.126" cy="2.504" rx="14.126" ry="2.504" transform="translate(3389.425 240.748)" fill="#3f3f3f" opacity="0.17"/>
  </g>
</svg>
