<svg xmlns="http://www.w3.org/2000/svg" width="85" height="85" viewBox="0 0 85 85">
  <g id="Grupo_57262" data-name="Grupo 57262" transform="translate(1009.808 -1071.03)">
    <path id="Trazado_120034" data-name="Trazado 120034" d="M42.5,0A42.5,42.5,0,1,1,0,42.5,42.5,42.5,0,0,1,42.5,0Z" transform="translate(-1009.808 1071.03)" fill="#529ad9"/>
    <path id="Trazado_101024" data-name="Trazado 101024" d="M-935.427,1096.2a41.334,41.334,0,0,0-2.083-12.965,42.352,42.352,0,0,0-29.8-12.206,42.5,42.5,0,0,0-42.5,42.5,42.642,42.642,0,0,0,.936,8.881,41.316,41.316,0,0,0,32.044,15.191A41.4,41.4,0,0,0-935.427,1096.2Z" transform="translate(0 0)" fill="#87bdec"/>
    <g id="Grupo_54621" data-name="Grupo 54621" transform="translate(-988.142 1095.608)">
      <path id="Trazado_101025" data-name="Trazado 101025" d="M-971.461,1125.525q0,8.08-9.107,8.079-9.084,0-9.084-8.079v-23.531q0-8.1,9.084-8.1,9.105,0,9.107,8.1Zm-6.333-23.531q0-2.607-2.753-2.609h-.044q-2.73,0-2.73,2.609v23.531q0,2.609,2.753,2.608,2.773,0,2.774-2.608Z" transform="translate(989.652 -1093.895)" fill="#fff"/>
      <path id="Trazado_101026" data-name="Trazado 101026" d="M-955.265,1094.478v33h5.929v5.471h-18.19v-5.471h5.929v-27.533h-5.929v-5.47Z" transform="translate(991.31 -1093.851)" fill="#fff"/>
    </g>
  </g>
</svg>
