<svg xmlns="http://www.w3.org/2000/svg" width="84.411" height="84.41" viewBox="0 0 84.411 84.41">
  <g id="Grupo_57265" data-name="Grupo 57265" transform="translate(903.604 -1071.03)">
    <path id="Trazado_120035" data-name="Trazado 120035" d="M42.205,0A42.205,42.205,0,1,1,0,42.205,42.205,42.205,0,0,1,42.205,0Z" transform="translate(-903.604 1155.44) rotate(-90)" fill="#529ad9"/>
    <path id="Trazado_101033" data-name="Trazado 101033" d="M-829.739,1096.026a41.048,41.048,0,0,0-2.068-12.875A42.062,42.062,0,0,0-861.4,1071.03a42.205,42.205,0,0,0-42.206,42.2,42.414,42.414,0,0,0,.93,8.819,41.029,41.029,0,0,0,31.823,15.086A41.113,41.113,0,0,0-829.739,1096.026Z" transform="translate(0 0)" fill="#87bdec"/>
    <g id="Grupo_54627" data-name="Grupo 54627" transform="translate(-882.088 1095.438)">
      <path id="Trazado_101034" data-name="Trazado 101034" d="M-865.383,1125.305q0,8.024-9.044,8.023-9.021,0-9.021-8.023v-23.368q0-8.044,9.021-8.042,9.044,0,9.044,8.042Zm-6.289-23.368q0-2.589-2.733-2.591h-.045q-2.709,0-2.71,2.591v23.368q0,2.591,2.733,2.59,2.756,0,2.755-2.59Z" transform="translate(883.448 -1093.895)" fill="#fff"/>
      <path id="Trazado_101035" data-name="Trazado 101035" d="M-843.9,1094.478v23.408h2.421v5.433H-843.9v9.367h-6.288v-9.367h-12.754v-4.829l11.021-24.012Zm-12.844,23.408h6.555V1103.3Z" transform="translate(884.831 -1093.856)" fill="#fff"/>
    </g>
  </g>
</svg>
