<svg xmlns="http://www.w3.org/2000/svg" width="85" height="85" viewBox="0 0 85 85">
  <g id="Grupo_57268" data-name="Grupo 57268" transform="translate(782.866 -1071.03)">
    <circle id="Elipse_4455" data-name="Elipse 4455" cx="42.5" cy="42.5" r="42.5" transform="translate(-782.865 1071.03)" fill="#529ad9"/>
    <path id="Trazado_101042" data-name="Trazado 101042" d="M-708.484,1096.2a41.333,41.333,0,0,0-2.083-12.965,42.354,42.354,0,0,0-29.8-12.206,42.5,42.5,0,0,0-42.5,42.5,42.649,42.649,0,0,0,.937,8.881,41.314,41.314,0,0,0,32.044,15.191A41.4,41.4,0,0,0-708.484,1096.2Z" transform="translate(0 0)" fill="#87bdec"/>
    <g id="Grupo_54633" data-name="Grupo 54633" transform="translate(-761.199 1095.608)">
      <path id="Trazado_101043" data-name="Trazado 101043" d="M-744.519,1125.525q0,8.08-9.106,8.079-9.086,0-9.084-8.079v-23.531q0-8.1,9.084-8.1,9.105,0,9.106,8.1Zm-6.331-23.531q0-2.607-2.753-2.609h-.044q-2.73,0-2.73,2.609v23.531q0,2.609,2.753,2.608,2.773,0,2.774-2.608Z" transform="translate(762.709 -1093.895)" fill="#fff"/>
      <path id="Trazado_101044" data-name="Trazado 101044" d="M-740.771,1099.948v-5.47h18.727v3.942l-8.86,34.533h-6.488l8.458-33Z" transform="translate(764.353 -1093.851)" fill="#fff"/>
    </g>
  </g>
</svg>
