<svg xmlns="http://www.w3.org/2000/svg" xmlns:xlink="http://www.w3.org/1999/xlink" width="84.345" height="84.345" viewBox="0 0 84.345 84.345">
  <defs>
    <clipPath id="clip-path">
      <rect id="Rectángulo_18243" data-name="Rectángulo 18243" width="56.9" height="56.898" fill="#fff"/>
    </clipPath>
  </defs>
  <g id="Grupo_61022" data-name="Grupo 61022" transform="translate(-285 -3098.214)">
    <path id="shutterstock_1802230447" d="M42.172,0A42.172,42.172,0,1,1,0,42.172,42.172,42.172,0,0,1,42.172,0Z" transform="translate(285 3098.214)" fill="#529ad9"/>
    <g id="Grupo_60663" data-name="Grupo 60663" transform="translate(300.803 3111.591)">
      <path id="Trazado_129455" data-name="Trazado 129455" d="M0,0V56.9H56.9V55.052H1.843V0Z" transform="translate(0 0)" fill="#fff"/>
      <rect id="Rectángulo_18229" data-name="Rectángulo 18229" width="0.802" height="3.449" transform="translate(8.397 52.526)" fill="#fff"/>
      <rect id="Rectángulo_18230" data-name="Rectángulo 18230" width="0.803" height="3.449" transform="translate(15.685 52.526)" fill="#fff"/>
      <rect id="Rectángulo_18231" data-name="Rectángulo 18231" width="0.803" height="3.449" transform="translate(22.975 52.526)" fill="#fff"/>
      <rect id="Rectángulo_18232" data-name="Rectángulo 18232" width="0.803" height="3.449" transform="translate(30.264 52.526)" fill="#fff"/>
      <rect id="Rectángulo_18233" data-name="Rectángulo 18233" width="0.803" height="3.449" transform="translate(37.551 52.526)" fill="#fff"/>
      <rect id="Rectángulo_18234" data-name="Rectángulo 18234" width="0.802" height="3.449" transform="translate(44.841 52.526)" fill="#fff"/>
      <rect id="Rectángulo_18235" data-name="Rectángulo 18235" width="0.803" height="3.449" transform="translate(52.129 52.526)" fill="#fff"/>
      <rect id="Rectángulo_18236" data-name="Rectángulo 18236" width="3.449" height="0.802" transform="translate(0.976 48.941)" fill="#fff"/>
      <rect id="Rectángulo_18237" data-name="Rectángulo 18237" width="3.449" height="0.804" transform="translate(0.976 41.651)" fill="#fff"/>
      <rect id="Rectángulo_18238" data-name="Rectángulo 18238" width="3.449" height="0.802" transform="translate(0.976 34.363)" fill="#fff"/>
      <rect id="Rectángulo_18239" data-name="Rectángulo 18239" width="3.449" height="0.803" transform="translate(0.976 27.075)" fill="#fff"/>
      <rect id="Rectángulo_18240" data-name="Rectángulo 18240" width="3.449" height="0.802" transform="translate(0.976 19.787)" fill="#fff"/>
      <rect id="Rectángulo_18241" data-name="Rectángulo 18241" width="3.449" height="0.802" transform="translate(0.976 12.497)" fill="#fff"/>
      <rect id="Rectángulo_18242" data-name="Rectángulo 18242" width="3.449" height="0.804" transform="translate(0.976 5.209)" fill="#fff"/>
      <g id="Grupo_60662" data-name="Grupo 60662" transform="translate(0 0)">
        <g id="Grupo_60661" data-name="Grupo 60661" clip-path="url(#clip-path)">
          <path id="Trazado_129456" data-name="Trazado 129456" d="M6.7,42.394a2.449,2.449,0,1,1,2.45,2.449A2.451,2.451,0,0,1,6.7,42.394" transform="translate(0.166 0.987)" fill="#fff"/>
          <path id="Trazado_129457" data-name="Trazado 129457" d="M14.9,30.1a2.45,2.45,0,1,1,2.45,2.45A2.449,2.449,0,0,1,14.9,30.1" transform="translate(0.368 0.683)" fill="#fff"/>
          <path id="Trazado_129458" data-name="Trazado 129458" d="M43.577,30.1a2.449,2.449,0,1,1,2.45,2.45,2.448,2.448,0,0,1-2.45-2.45" transform="translate(1.077 0.683)" fill="#fff"/>
          <path id="Trazado_129459" data-name="Trazado 129459" d="M19,13.714a2.449,2.449,0,1,1,2.45,2.45A2.449,2.449,0,0,1,19,13.714" transform="translate(0.469 0.279)" fill="#fff"/>
          <path id="Trazado_129460" data-name="Trazado 129460" d="M23.093,38.3a2.449,2.449,0,1,1,2.449,2.448A2.448,2.448,0,0,1,23.093,38.3" transform="translate(0.57 0.886)" fill="#fff"/>
          <path id="Trazado_129461" data-name="Trazado 129461" d="M35.382,34.2a2.449,2.449,0,1,1,2.45,2.45,2.449,2.449,0,0,1-2.45-2.45" transform="translate(0.874 0.785)" fill="#fff"/>
          <path id="Trazado_129462" data-name="Trazado 129462" d="M39.48,46.491a2.449,2.449,0,1,1,2.449,2.448,2.449,2.449,0,0,1-2.449-2.448" transform="translate(0.975 1.088)" fill="#fff"/>
          <path id="Trazado_129463" data-name="Trazado 129463" d="M27.188,21.908a2.449,2.449,0,1,1,2.45,2.448,2.45,2.45,0,0,1-2.45-2.448" transform="translate(0.672 0.481)" fill="#fff"/>
          <path id="Trazado_129464" data-name="Trazado 129464" d="M43.577,17.811a2.449,2.449,0,1,1,2.45,2.45,2.451,2.451,0,0,1-2.45-2.45" transform="translate(1.077 0.38)" fill="#fff"/>
        </g>
      </g>
    </g>
  </g>
</svg>
