<svg xmlns="http://www.w3.org/2000/svg" width="378.765" height="335.191" viewBox="0 0 378.765 335.191">
  <g id="Grupo_57324" data-name="Grupo 57324" transform="translate(-69.71 -57.073)">
    <g id="Grupo_57289" data-name="Grupo 57289" transform="translate(380.584 236.47)">
      <g id="Grupo_57288" data-name="Grupo 57288">
        <path id="Trazado_120067" data-name="Trazado 120067" d="M322.232,204.428l-.115-1.648s.734-.05,1.967-.048c1.239-.014,3,.044,5.105.2A77.438,77.438,0,0,1,344.4,205.65a71.446,71.446,0,0,1,14.329,5.787,48.374,48.374,0,0,1,4.407,2.574l1.618,1.065-.926,1.367-1.579-1.038a46.792,46.792,0,0,0-4.3-2.511,69.848,69.848,0,0,0-14-5.656,75.835,75.835,0,0,0-14.883-2.657c-2.057-.155-3.776-.212-4.972-.2S322.232,204.428,322.232,204.428Z" transform="translate(-322.117 -202.73)" fill="#108f6e"/>
      </g>
      <path id="Trazado_120068" data-name="Trazado 120068" d="M358.548,221.728a6.216,6.216,0,0,1-2.283-3.734,5.186,5.186,0,0,1,.693-4.027,4.524,4.524,0,0,1,3.676-1.926,7.481,7.481,0,0,1,4.653,1.708,7.2,7.2,0,0,1,2.441,4.323,4.417,4.417,0,0,1-1.237,3.9,5.314,5.314,0,0,1-3.9,1.4A6.467,6.467,0,0,1,358.548,221.728Z" transform="translate(-314.236 -200.574)" fill="#fce300"/>
      <path id="Trazado_120069" data-name="Trazado 120069" d="M359.431,218.682a11.623,11.623,0,0,0,1.6.622,8.192,8.192,0,0,0,3.141.544,6.267,6.267,0,0,0-.943-3.153,12,12,0,0,0-1.048-1.456,10.17,10.17,0,0,0,3.717-1.826,7.583,7.583,0,0,0,1.291-1.238,13.191,13.191,0,0,0-5.021-1.526,8.4,8.4,0,0,0-3.671.589,7.8,7.8,0,0,0-2.934,1.942,9.69,9.69,0,0,0-.692,3.417,12.072,12.072,0,0,0,.426,3.419,10.693,10.693,0,0,0,1.944,3.94,9.216,9.216,0,0,0,2.192-5.274Z" transform="translate(-314.532 -200.902)" fill="#108f6e"/>
    </g>
    <ellipse id="Elipse_4460" data-name="Elipse 4460" cx="169.734" cy="14.241" rx="169.734" ry="14.241" transform="translate(92.687 363.782)" fill="#343508" opacity="0.23"/>
    <g id="Grupo_57291" data-name="Grupo 57291" transform="translate(85.418 222.674)">
      <g id="Grupo_57290" data-name="Grupo 57290" transform="translate(13.952 5.74)">
        <path id="Trazado_120070" data-name="Trazado 120070" d="M141.4,202.273l-.6,1.671s-.679-.245-1.919-.628-3.016-.909-5.175-1.457a128.123,128.123,0,0,0-16.048-3.029,118.3,118.3,0,0,0-16.292-.849c-2.221.112-4.078.124-5.366.266l-2.027.2-.177-1.767,2.067-.2c1.314-.145,3.2-.159,5.465-.272a120.142,120.142,0,0,1,16.548.862,129.9,129.9,0,0,1,16.274,3.07c2.191.557,4,1.086,5.264,1.483S141.4,202.273,141.4,202.273Z" transform="translate(-93.792 -196.189)" fill="#108f6e"/>
      </g>
      <path id="Trazado_120071" data-name="Trazado 120071" d="M88.133,193.686a7.863,7.863,0,0,1,5.2.815,5.079,5.079,0,0,1,2.464,3.743,5.3,5.3,0,0,1-1.442,4.131,6.87,6.87,0,0,1-4.153,2.346,9.331,9.331,0,0,1-2.467.07,6.638,6.638,0,0,1-2.227-.707,5.645,5.645,0,0,1-2.876-3.4,4.806,4.806,0,0,1,.945-4.3,7.174,7.174,0,0,1,1.919-1.692A6.916,6.916,0,0,1,88.133,193.686Z" transform="translate(-82.464 -191.058)" fill="#fce300"/>
      <path id="Trazado_120072" data-name="Trazado 120072" d="M89.947,197.027a12.944,12.944,0,0,0-1.738.826,6.567,6.567,0,0,0-2.563,2.414,9.148,9.148,0,0,0,3.234,1.191,12.45,12.45,0,0,0,1.833.241,9.464,9.464,0,0,0-.936,4.221,9.249,9.249,0,0,0,.182,1.9,11.961,11.961,0,0,0,3.972-2.721,10.894,10.894,0,0,0,2.208-3,10.233,10.233,0,0,0,1.09-3.6,8.5,8.5,0,0,0-1.782-3.319,10.168,10.168,0,0,0-3.122-2.467,13.787,13.787,0,0,0-5.422-1.186,8.268,8.268,0,0,0,.547,1.84A10.712,10.712,0,0,0,89.947,197.027Z" transform="translate(-81.727 -191.529)" fill="#108f6e"/>
    </g>
    <path id="Trazado_120073" data-name="Trazado 120073" d="M228.681,122.078s-13.749-6.8-16.154-21.756,21.46-20.623,31.353,4.125c0,0-1.793-26.81,14.533-29.732s13.69,29.7,8.735,34.871c0,0,6.859-4.968,13.584-.844s4.555,20.28-17.132,24.576S228.681,122.078,228.681,122.078Z" transform="translate(33.043 4.044)" fill="#6f7302"/>
    <path id="Trazado_120074" data-name="Trazado 120074" d="M239.807,119.855C236,111.433,229.073,102.42,229,102.33l.378-.292c.069.091,7.027,9.147,10.859,17.621Z" transform="translate(36.899 10.416)" fill="#fff"/>
    <rect id="Rectángulo_17097" data-name="Rectángulo 17097" width="33.459" height="0.476" transform="matrix(0.17, -0.985, 0.985, 0.17, 288.048, 128.818)" fill="#fff"/>
    <path id="Trazado_120075" data-name="Trazado 120075" d="M176.272,139.445s-5.666-12.422-17.346-12.419-13.374,12.339-6.542,21.5a48.473,48.473,0,0,0-27.334-7.162c-16.121.622-28.036,12.537-24.531,25.855s21.493,16.354,26.633,14.952c0,0-17.755,12.616-10.747,24.064s28.971,0,28.971,0Z" transform="translate(6.994 16.204)" fill="#6f7302"/>
    <path id="Trazado_120076" data-name="Trazado 120076" d="M148.457,165.3c-.2-.084-20.079-8.28-30.242-9.29l.094-.948c10.3,1.023,30.312,9.274,30.513,9.358Z" transform="translate(11.236 22.698)" fill="#fff"/>
    <path id="Trazado_120077" data-name="Trazado 120077" d="M118.588,164.6l-.564-.769c3.989-2.925,11.862-5.854,12.2-5.977l.33.893C130.47,158.776,122.469,161.751,118.588,164.6Z" transform="translate(11.191 23.344)" fill="#fff"/>
    <path id="Trazado_120078" data-name="Trazado 120078" d="M135.894,162.367c-.112-.308-2.738-7.562-2.97-10.512l.95-.075c.222,2.823,2.888,10.187,2.915,10.261Z" transform="translate(14.643 21.938)" fill="#fff"/>
    <path id="Trazado_120079" data-name="Trazado 120079" d="M121.649,188.426l-.48-.823c9.9-5.774,17.75-6.944,17.828-6.955l.134.943C139.055,181.6,131.373,182.753,121.649,188.426Z" transform="translate(11.92 28.625)" fill="#fff"/>
    <path id="Trazado_120080" data-name="Trazado 120080" d="M157.954,150.522c-.314-.34-7.7-8.4-9.718-14.955l.911-.28c1.952,6.347,9.431,14.506,9.507,14.589Z" transform="translate(18.19 18.118)" fill="#fff"/>
    <g id="Grupo_57292" data-name="Grupo 57292" transform="translate(69.71 237.344)">
      <path id="Trazado_120081" data-name="Trazado 120081" d="M126.486,209.941l-.783-5.81a74.744,74.744,0,0,0-36.771,4.212l-.35,4.116-1.979-3.1q-1.968.905-3.775,1.952l1.248,7.609-4.547-5.486a25.427,25.427,0,0,0-8.025,8.852,15.927,15.927,0,0,0-1.445,10.678,17.4,17.4,0,0,0,4.254,8.328,20.648,20.648,0,0,0,3.548,3.078,26.224,26.224,0,0,0,4.377,2.411c6.317,2.768,14.547,3.781,23.428,3.131l2.106-6.678,2.93,6.146c2.006-.291,4.045-.653,6.074-1.1l-.565-4,3.324,3.343q1.179-.3,2.351-.638c14.063-4.066,22.94-10.735,28.294-16.431a36.423,36.423,0,0,0,7.192-10.393s-8.078-11.409-27.942-15.391Z" transform="translate(-69.71 -203.44)" fill="#a0a603"/>
    </g>
    <rect id="Rectángulo_17098" data-name="Rectángulo 17098" width="66.546" height="0.953" transform="translate(85.503 265.994) rotate(-10.695)" fill="#fff"/>
    <path id="Trazado_120082" data-name="Trazado 120082" d="M103.145,225.094c-4.659-.271-13.9-4.3-14.286-4.471l.382-.873c.095.041,9.47,4.132,13.959,4.392Z" transform="translate(4.436 37.682)" fill="#fff"/>
    <path id="Trazado_120083" data-name="Trazado 120083" d="M103.676,231.875l-.924-.23c1-3.986,6.152-9.308,6.371-9.532l.682.665C109.754,222.831,104.611,228.141,103.676,231.875Z" transform="translate(7.654 38.23)" fill="#fff"/>
    <path id="Trazado_120084" data-name="Trazado 120084" d="M123.379,221.61c-5.348-1.224-10.937-6.886-11.172-7.126l.681-.666c.055.057,5.63,5.7,10.7,6.864Z" transform="translate(9.844 36.308)" fill="#fff"/>
    <g id="Grupo_57293" data-name="Grupo 57293" transform="translate(364.047 267.626)">
      <path id="Trazado_120085" data-name="Trazado 120085" d="M333.489,260.562l-1.253,5.579a72.9,72.9,0,0,0,35.07,8.607l1.714-3.648.76,3.51c1.405-.108,2.776-.275,4.115-.507l1.437-7.385,2.3,6.56a24.818,24.818,0,0,0,10.341-5.379,15.528,15.528,0,0,0,4.94-9.28,16.985,16.985,0,0,0-1.07-9.062,20.123,20.123,0,0,0-2.2-4.018,25.629,25.629,0,0,0-3.187-3.69c-4.842-4.672-12.028-8.387-20.375-10.8l-4.189,5.4-.6-6.615c-1.935-.415-3.922-.775-5.932-1.049l-.839,3.85-1.909-4.184c-.786-.081-1.575-.154-2.367-.212-14.243-1.046-24.627,2.048-31.455,5.446a35.517,35.517,0,0,0-10.1,7.071s3.526,13.175,20.35,23.549Z" transform="translate(-308.69 -228.026)" fill="#6f7302"/>
    </g>
    <rect id="Rectángulo_17099" data-name="Rectángulo 17099" width="0.954" height="64.926" transform="translate(369.835 282.923) rotate(-80.349)" fill="#fff"/>
    <path id="Trazado_120086" data-name="Trazado 120086" d="M359.049,255.191c-.071-.069-7.262-6.987-11.278-8.745l.381-.873c4.174,1.825,11.261,8.644,11.56,8.933Z" transform="translate(64.41 43.664)" fill="#fff"/>
    <path id="Trazado_120087" data-name="Trazado 120087" d="M340.657,246.2l-.41-.86c.066-.032,6.567-3.146,8.686-6.244l.787.538C347.456,242.948,340.933,246.071,340.657,246.2Z" transform="translate(62.667 42.164)" fill="#fff"/>
    <path id="Trazado_120088" data-name="Trazado 120088" d="M334.737,252.826c-.033-.07-3.218-7.12-7.464-9.9l.522-.8c4.481,2.936,7.677,10.011,7.81,10.311Z" transform="translate(59.662 42.866)" fill="#fff"/>
    <g id="Grupo_57294" data-name="Grupo 57294" transform="translate(330.209 343.229)">
      <rect id="Rectángulo_17100" data-name="Rectángulo 17100" width="34.986" height="2.008" transform="translate(0 32.651) rotate(-68.946)" fill="#bce13e"/>
    </g>
    <g id="Grupo_57295" data-name="Grupo 57295" transform="translate(342.778 343.229)">
      <rect id="Rectángulo_17101" data-name="Rectángulo 17101" width="2.008" height="34.986" transform="translate(0 0.721) rotate(-21.054)" fill="#bce13e"/>
    </g>
    <g id="Grupo_57296" data-name="Grupo 57296" transform="translate(338.475 356.199)">
      <rect id="Rectángulo_17102" data-name="Rectángulo 17102" width="10.861" height="2.007" fill="#bce13e"/>
    </g>
    <g id="Grupo_57297" data-name="Grupo 57297" transform="translate(335.978 363.376)">
      <rect id="Rectángulo_17103" data-name="Rectángulo 17103" width="15.739" height="2.007" fill="#bce13e"/>
    </g>
    <path id="Trazado_120089" data-name="Trazado 120089" d="M115.108,316.675a7.634,7.634,0,0,0,1.132,2.332,19.527,19.527,0,0,1,2.234,3.152c.153.612-.581,1.163-1.285.919a52.275,52.275,0,0,1-6.978-3.458c-1.193-.919-1.531-1.255-1.5-1.469a37.31,37.31,0,0,1,1.905-3.407C111.038,314.11,114.22,314.131,115.108,316.675Z" transform="translate(9.034 59.606)" fill="#91b31e"/>
    <path id="Trazado_120090" data-name="Trazado 120090" d="M125.576,310.9a7.631,7.631,0,0,0,2.109,1.506,19.614,19.614,0,0,1,3.469,1.7c.427.466.046,1.3-.69,1.421a52.241,52.241,0,0,1-7.783.3c-1.488-.236-1.945-.371-2.02-.574a37.173,37.173,0,0,1,.046-3.9C120.774,310.589,123.58,309.087,125.576,310.9Z" transform="translate(11.794 58.597)" fill="#91b31e"/>
    <path id="Trazado_120091" data-name="Trazado 120091" d="M125.808,274.578S128.262,291,128.365,295.3s-2.557,24.2-2.557,24.2h-5.183s.506-9.7.506-11.214-.506-14.755-.506-14.755l.506-18.427S124.161,273.246,125.808,274.578Z" transform="translate(11.794 50.271)" fill="#0e1a34"/>
    <path id="Trazado_120092" data-name="Trazado 120092" d="M116.369,275.131s-1.622,4.213-1.117,12.9a101,101,0,0,0,.922,10.708s-5.812,22.6-6.571,25.294a12.362,12.362,0,0,0,5.648,2.109s6.156-15.177,8.348-20.573a34.026,34.026,0,0,0,2.845-13.913c.021-4.721.527-17.454.527-17.454Z" transform="translate(9.241 50.295)" fill="#0e1a34"/>
    <path id="Trazado_120093" data-name="Trazado 120093" d="M121.635,302.192l-.456-.139a63.323,63.323,0,0,0,2.468-18.367l.477,0A63.778,63.778,0,0,1,121.635,302.192Z" transform="translate(11.922 52.492)" fill="#fff"/>
    <path id="Trazado_120094" data-name="Trazado 120094" d="M131.471,275.142s-10.684-1.845-14.554-3.988-3.393-4.048-2.857-5.418,2.2-4.286,2.2-4.286l3.786,2.708-.095.845-.647,1.474s1.235.783,3.1,1.818,9.455,4.516,9.455,4.516S133.705,274.334,131.471,275.142Z" transform="translate(10.19 47.342)" fill="#ff9a5c"/>
    <path id="Trazado_120095" data-name="Trazado 120095" d="M128.04,272.9a6.855,6.855,0,0,0,2.011,1.443c.084.722.5,1.027.734,1s.238-1.111.238-1.111c.208.5,1.027,1,1.138.693a1.812,1.812,0,0,0,0-.8s.334.443.584.443.555-.222.443-.777a5.362,5.362,0,0,0-.777-1.833c-.333-.443-.527-.888-1.249-1.054a11.864,11.864,0,0,0-1.806-.139,15.712,15.712,0,0,0-2.081,0Z" transform="translate(13.334 49.491)" fill="#ff9a5c"/>
    <path id="Trazado_120096" data-name="Trazado 120096" d="M125.3,245.416s-1.421-3.1-5.436-1.924-2.759,4.934-5.353,6.524-6.439,2.425-7.443,6.858,2.091,4.766,0,7.443-2.844,4.6-.585,7.36,6.235,1.924,8.72.585,13.36-6.439,13.36-6.439a4.042,4.042,0,0,0,0-5.52c-2.522-2.849-1.84-7.193-1.84-7.193s.92-.168,1.254-2.676S127.509,244.657,125.3,245.416Z" transform="translate(8.199 43.121)" fill="#753519"/>
    <path id="Trazado_120097" data-name="Trazado 120097" d="M282.218,74.589l1.4-1.015a42.892,42.892,0,0,0,12.669,9.835c7.863,3.963,10.559,5.476,11.274,5.605s4.093.716,5.263,2.21,1.3,2.339,1.04,2.4-1.559-1.819-1.559-1.819,1.3,1.676,1.17,2.3-.86-.442-1.121-.7-.913-1.017-.913-1.017a10.313,10.313,0,0,1,1.434,2.346c.053.548-.86-.156-1.564-.938s-1.485-1.147-1.668-.911-.261,1.2-.548,1.016-.339-.913-.469-1.434c-.463-.011-2.583-.773-6.4-1.536s-19.074-7.461-22.55-11.784S282.218,74.589,282.218,74.589Z" transform="translate(48.386 3.822)" fill="#ff9a5c"/>
    <g id="Grupo_57298" data-name="Grupo 57298" transform="translate(388.586 202.871)">
      <path id="Trazado_120098" data-name="Trazado 120098" d="M367.291,207.564h0a10.023,10.023,0,0,0,2.414-5.138,9.178,9.178,0,0,0-1.219-5.379l1.116,1.187c.66.721,1.584,1.644,2.434,2.632l3.239,4.088a11.733,11.733,0,0,0-2.606,5.2,9.67,9.67,0,0,0,.425,5.528h0a9.587,9.587,0,0,0,2.952-4.742,8.9,8.9,0,0,0,.243-2.734,7.6,7.6,0,0,0-.671-2.82l.564.712c.32.44.707,1.057,1.112,1.659l1.6,2.424a10.994,10.994,0,0,0,.435,2.936,10.05,10.05,0,0,0,1,2.632,10.387,10.387,0,0,0,4.217,3.994h0a10.133,10.133,0,0,0-1.1-5.758,9.121,9.121,0,0,0-1.728-2.312,11.051,11.051,0,0,0-2.594-1.641l-1-1.517-1.028-1.554-.58-.877-.671-.854-3.615-4.562a10.866,10.866,0,0,0,10.989,1.276h0a10.466,10.466,0,0,0-5.6-2.82,8.986,8.986,0,0,0-5.749,1.122l-3.583-3.813a32.975,32.975,0,0,0-2.6-2.484l-1.213-1.1a11.456,11.456,0,0,0,2.756,1.026,14.408,14.408,0,0,0,2.8.325,10.807,10.807,0,0,0,5.52-1.548h0a12.349,12.349,0,0,0-2.893-1.6,8.432,8.432,0,0,0-3-.509,9.269,9.269,0,0,0-5.588,1.936l-1.213-1.1-2.845-2.2a35.617,35.617,0,0,0-2.9-2.122l-1.366-.9a11.561,11.561,0,0,0,2.891.6,10.639,10.639,0,0,0,2.785-.028A11.078,11.078,0,0,0,366.7,184.4h0a10.307,10.307,0,0,0-6.153-1.271,9.349,9.349,0,0,0-5.271,2.734l-1.367-.9c-.824-.533-1.988-1.136-3.121-1.788l-1.676-.94-1.512-.724-1.476-.706a12.306,12.306,0,0,0,5.7-.256,11.1,11.1,0,0,0,4.893-3.078h0a12.641,12.641,0,0,0-3.274-.684,7.739,7.739,0,0,0-3.019.331,9.194,9.194,0,0,0-4.8,3.447l-.69-.329-1.866-.759c-1.531-.665-3.632-1.393-5.748-2.078-2.131-.637-4.284-1.195-5.925-1.5-1.634-.339-2.75-.446-2.75-.446l-.026.272s.772.081,1.927.289,2.683.549,4.2.934c1.505.43,3.016.842,4.117,1.254l1.852.633a11.8,11.8,0,0,0,.576,5.811,10.645,10.645,0,0,0,3.208,4.418h0a9.638,9.638,0,0,0,.059-5.605,8.647,8.647,0,0,0-3.327-4.43l1.51.613c.9.374,2.126.828,3.288,1.421,1.171.57,2.36,1.108,3.224,1.564l1.421.8a11.3,11.3,0,0,0-.27,5.79,9.88,9.88,0,0,0,2.531,4.861h0a9.525,9.525,0,0,0,.86-5.513,8.875,8.875,0,0,0-.856-2.611,9.675,9.675,0,0,0-1.783-2.256l1.421.8c.873.445,1.932,1.209,3.029,1.913a47.044,47.044,0,0,1,4.254,3.011,11.241,11.241,0,0,0-1.1,5.69,10.376,10.376,0,0,0,1.806,5.2h0a9.655,9.655,0,0,0,1.65-5.358,8.4,8.4,0,0,0-.47-2.71,10.064,10.064,0,0,0-1.446-2.483l1.291.994a32.436,32.436,0,0,1,2.724,2.327l2.66,2.4a11.352,11.352,0,0,1,.83.839l.307.328a11.465,11.465,0,0,0-1.923,5.521,9.153,9.153,0,0,0,.223,2.7A11.916,11.916,0,0,0,367.291,207.564Z" transform="translate(-328.614 -175.45)" fill="#bce13e"/>
    </g>
    <g id="Grupo_57299" data-name="Grupo 57299" transform="translate(109.456 99.779)">
      <path id="Trazado_120099" data-name="Trazado 120099" d="M121.9,107.837h0a11.879,11.879,0,0,0-3.383,5.813,10.8,10.8,0,0,0,.6,6.62l-1.143-1.57c-.7-.931-1.581-2.213-2.439-3.509l-2.386-3.545c-.333-.479-.585-.894-.76-1.186l-.278-.456a13,13,0,0,0,3.574-5.985,11.136,11.136,0,0,0,.345-3.286,12.739,12.739,0,0,0-.5-3.414h0a11.916,11.916,0,0,0-3.9,5.5,11.174,11.174,0,0,0,.132,6.621s-.9-1.477-1.807-2.953c-.446-.743-.916-1.471-1.229-2.038s-.517-.951-.517-.951a12.527,12.527,0,0,0-1.365-6.716,12.283,12.283,0,0,0-4.71-5.037h0a12.149,12.149,0,0,0,.893,6.946,11.678,11.678,0,0,0,4.9,4.967l.284.522c.177.335.436.81.785,1.36l2.484,4.063c.878,1.494,1.863,2.918,2.588,4l1.208,1.8a13.026,13.026,0,0,0-6.026-3.056,12.631,12.631,0,0,0-6.789.5h0a14.161,14.161,0,0,0,2.92,2.471,10.875,10.875,0,0,0,3.284,1.315,11.542,11.542,0,0,0,6.98-.682l1.09,1.612,2.52,3.46c1.8,2.541,3.747,4.971,3.747,4.971a13.219,13.219,0,0,0-3.011-1.764,11.594,11.594,0,0,0-3.176-.9,12.657,12.657,0,0,0-6.743,1.02h0a12.274,12.274,0,0,0,6.4,3.306,11.779,11.779,0,0,0,6.935-1.14l1.195,1.536c.7.931,1.7,2.127,2.691,3.327s1.982,2.4,2.724,3.3l1.275,1.469a12.192,12.192,0,0,0-12.985-.92h0a12.491,12.491,0,0,0,6.56,2.907,11.714,11.714,0,0,0,6.856-1.488L133,138.108c.759.888,1.786,2.057,2.839,3.2l2.876,3.169,1.334,1.416a12.144,12.144,0,0,0-13-.324h0a11.473,11.473,0,0,0,13.448.8l2.27,2.4c1.389,1.414,3.215,3.327,5.1,5.178,1.867,1.871,3.779,3.7,5.223,5.057s2.43,2.244,2.43,2.244l.216-.243s-2.767-2.505-5.435-5.119c-1.346-1.293-2.654-2.627-3.653-3.609l-1.634-1.666a12.47,12.47,0,0,0,2.166-6.62,12.076,12.076,0,0,0-1.817-6.625h0a11.257,11.257,0,0,0-.809,12.773s-2.179-2.218-4.3-4.5c-1.074-1.124-2.122-2.272-2.9-3.141l-1.3-1.44a12.006,12.006,0,0,0,.926-13.2h0a11.23,11.23,0,0,0-1.368,12.717l-1.3-1.447-2.8-3.229c-1.03-1.165-2.02-2.364-2.758-3.266l-1.237-1.5a12.591,12.591,0,0,0,2.747-6.39,11.889,11.889,0,0,0-1.168-6.726h0a11.872,11.872,0,0,0-2.983,6.019,11.1,11.1,0,0,0,.985,6.589l-1.237-1.5-2.63-3.37c-1.942-2.428-3.742-4.964-3.742-4.964a12.631,12.631,0,0,0,3.106-6.22A12.431,12.431,0,0,0,121.9,107.837Z" transform="translate(-101.981 -91.747)" fill="#91b31e"/>
    </g>
    <path id="Trazado_120100" data-name="Trazado 120100" d="M247.578,81.268a4.933,4.933,0,0,1-1.206-.973,3.347,3.347,0,0,0-.748-.989,2.643,2.643,0,0,0-1.181-.509,5.443,5.443,0,0,0,.964,1.947.478.478,0,0,0,.663-.068,6.415,6.415,0,0,0,.906,1.53S248.361,81.73,247.578,81.268Z" transform="translate(40.475 5.032)" fill="#ff9a5c"/>
    <circle id="Elipse_4461" data-name="Elipse 4461" cx="121.236" cy="121.236" r="121.236" transform="translate(141.576 125.905)" fill="#529ad9"/>
    <path id="Trazado_120101" data-name="Trazado 120101" d="M273.684,318.406a108.383,108.383,0,0,1-53.642-202.555A121.249,121.249,0,1,0,365.813,267.117,108.3,108.3,0,0,1,273.684,318.406Z" transform="translate(13.516 13.615)" fill="#398abc"/>
    <path id="Trazado_120102" data-name="Trazado 120102" d="M263.411,81.153s-2.894,2.6-3.864,2.6-10.61-2.887-12.43-3.27-1.724.191-2.442.67,1.54,1.929,1.54,1.929,8.61,4.391,13.061,5.444,8.012-2.556,8.012-2.556S268.455,81.291,263.411,81.153Z" transform="translate(40.496 5.395)" fill="#ff9a5c"/>
    <path id="Trazado_120103" data-name="Trazado 120103" d="M231.769,83.235s6.77.74,11.446-.45c0,0,2.9,4.863,3.992,6.658l-.477,2.319a15.673,15.673,0,0,1-10.921,5.311S230.722,90.042,231.769,83.235Z" transform="translate(37.506 5.956)" fill="#108f6e"/>
    <g id="Grupo_57300" data-name="Grupo 57300" transform="translate(271.376 80.755)">
      <path id="Trazado_120104" data-name="Trazado 120104" d="M241.97,92.947a5.59,5.59,0,0,1-2.485-.589l.48-.881a4.445,4.445,0,0,0,3.54.154c1.579-.68,2.761-2.44,3.516-5.231.858-3.176.43-5.715-1.24-7.337-1.948-1.893-5.048-2.069-7.257-1.4-4.524,1.365-4.063,7.717-4.058,7.782l-1,.083c-.006-.073-.535-7.225,4.768-8.825a8.554,8.554,0,0,1,8.246,1.643c1.358,1.32,2.723,3.834,1.51,8.32-.84,3.11-2.221,5.093-4.1,5.9A4.841,4.841,0,0,1,241.97,92.947Z" transform="translate(-233.448 -76.301)" fill="#108f6e"/>
    </g>
    <path id="Trazado_120105" data-name="Trazado 120105" d="M244.875,79.87s-.87-.335-1.218.257c-.361.616,1.092,1.1,2.32.978S246.1,80.088,244.875,79.87Z" transform="translate(40.28 5.259)" fill="#ff9a5c"/>
    <path id="Trazado_120106" data-name="Trazado 120106" d="M244.908,80.571a1.659,1.659,0,0,0-1.445.233c-.587.5,1.3,1.216,2.737,1.086S246.349,80.8,244.908,80.571Z" transform="translate(40.223 5.426)" fill="#ff9a5c"/>
    <path id="Trazado_120107" data-name="Trazado 120107" d="M267.592,139.088a8.545,8.545,0,0,1-1.267,2.609c-.925,1.267-2.329,2.843-2.5,3.529s.65,1.3,1.439,1.027a58.345,58.345,0,0,0,7.81-3.871c1.335-1.027,1.712-1.4,1.678-1.644a41.681,41.681,0,0,0-2.132-3.812C272.148,136.216,268.585,136.239,267.592,139.088Z" transform="translate(44.959 18.407)" fill="#91b31e"/>
    <path id="Trazado_120108" data-name="Trazado 120108" d="M244.74,81.235a1.3,1.3,0,0,0-1.278.278c-.522.539,1.148,1.272,2.429,1.133S246.564,81.327,244.74,81.235Z" transform="translate(40.225 5.582)" fill="#ff9a5c"/>
    <path id="Trazado_120109" data-name="Trazado 120109" d="M236.743,89.7s-18.648-4.211-19.337-4.216-3.01-.434-4.128,1.115a2.227,2.227,0,0,0,1.2,1.462c1.032.516,2.409-.509,2.409-.509l22.532,7.942A4.586,4.586,0,0,0,236.743,89.7Z" transform="translate(33.256 6.567)" fill="#108f6e"/>
    <path id="Trazado_120110" data-name="Trazado 120110" d="M215.185,88.275h0a1.674,1.674,0,0,1-.757-.17,2.465,2.465,0,0,1-1.333-1.633l-.042-.233.233-.044a4.326,4.326,0,0,1,.7-.052,4.879,4.879,0,0,1,3.1,1.056l.238.193-.245.182A3.7,3.7,0,0,1,215.185,88.275Zm-1.542-1.643a2.052,2.052,0,0,0,1,1.047,1.219,1.219,0,0,0,.544.119,2.853,2.853,0,0,0,1.34-.43,4.464,4.464,0,0,0-2.535-.749C213.856,86.62,213.739,86.626,213.643,86.632Z" transform="translate(33.204 6.734)" fill="#108f6e"/>
    <path id="Trazado_120111" data-name="Trazado 120111" d="M318.139,290.932h-33.6l5.67-6.532h33.6Z" transform="translate(49.762 52.658)" fill="#ffd200"/>
    <path id="Trazado_120112" data-name="Trazado 120112" d="M215.465,86.386S202.234,99.6,204,115.4h16.015s-3.955-19.533-.934-28.059A4.518,4.518,0,0,0,215.465,86.386Z" transform="translate(31.069 6.778)" fill="#9ae5e5" opacity="0.79"/>
    <path id="Trazado_120113" data-name="Trazado 120113" d="M268.58,95.247s-12.94,10.231-14.42,13.769S260,120.121,260,120.121s6.909,24.595,9.3,28.707a30.093,30.093,0,0,0,5.84-2.221s-2.3-22.21-3.373-25.171c0,0,16.785-15.7,19.662-20.352S270.577,93.631,268.58,95.247Z" transform="translate(42.68 8.736)" fill="#0e1a34"/>
    <path id="Trazado_120114" data-name="Trazado 120114" d="M272.914,128.818a8.555,8.555,0,0,1,.038,2.9c-.259,1.548-.807,3.587-.653,4.275a1.027,1.027,0,0,0,1.748.273,58.5,58.5,0,0,0,5.242-6.964c.733-1.517.9-2.024.762-2.222a41.225,41.225,0,0,0-3.616-2.45C275.7,124.207,272.523,125.826,272.914,128.818Z" transform="translate(46.921 15.634)" fill="#91b31e"/>
    <path id="Trazado_120115" data-name="Trazado 120115" d="M258.672,118.119c-.166-5.472,8.979-14.286,9.368-14.658l.329.345c-.094.09-9.38,9.037-9.22,14.3Z" transform="translate(43.77 10.745)" fill="#fff"/>
    <path id="Trazado_120116" data-name="Trazado 120116" d="M259.672,117.089l15.945,14.523a35.33,35.33,0,0,0,3.486-4.307s-5.808-11.319-8.213-13.622S259.672,117.089,259.672,117.089Z" transform="translate(44.003 12.987)" fill="#0e1a34"/>
    <path id="Trazado_120117" data-name="Trazado 120117" d="M300.238,282.8a8.55,8.55,0,0,1-2.253,1.825c-1.374.756-3.314,1.589-3.76,2.137s.038,1.455.868,1.541a58.563,58.563,0,0,0,8.714-.2c1.646-.365,2.146-.547,2.217-.778a41.378,41.378,0,0,0-.318-4.356C305.58,282.128,302.344,280.64,300.238,282.8Z" transform="translate(51.967 52.028)" fill="#91b31e"/>
    <g id="Grupo_57302" data-name="Grupo 57302" transform="translate(226.556 95.011)">
      <g id="Grupo_57301" data-name="Grupo 57301" transform="translate(5.609 6.143)">
        <path id="Trazado_120118" data-name="Trazado 120118" d="M212.729,116.738l-.967.027s-.009-.377-.095-1.075-.236-1.686-.482-2.866a43.17,43.17,0,0,0-2.806-8.392,47.539,47.539,0,0,0-4.362-7.719c-.654-1.02-1.307-1.795-1.729-2.361l-.676-.881.754-.608.689.9c.43.578,1.094,1.366,1.761,2.405a48.561,48.561,0,0,1,4.447,7.871,44.082,44.082,0,0,1,2.868,8.585c.252,1.213.419,2.234.5,2.96S212.729,116.738,212.729,116.738Z" transform="translate(-201.612 -92.863)" fill="#108f6e"/>
      </g>
      <path id="Trazado_120119" data-name="Trazado 120119" d="M202.639,89.183c1.424,1.6,1.487,3.781.169,4.834a3.734,3.734,0,0,1-4.976-5.342C198.979,87.436,201.135,87.661,202.639,89.183Z" transform="translate(-197.058 -87.876)" fill="#fce300"/>
      <path id="Trazado_120120" data-name="Trazado 120120" d="M202.048,91.133a6.259,6.259,0,0,0-.879-.558,4.148,4.148,0,0,0-1.867-.467,4.122,4.122,0,0,0,.405,1.828,7.959,7.959,0,0,0,.421.922,5.322,5.322,0,0,0-3.037,1.432,6.455,6.455,0,0,0,4.478,1.174,5.413,5.413,0,0,0,1.955-.567,4.764,4.764,0,0,0,1-1.813,6.107,6.107,0,0,0-.824-4.955A5.749,5.749,0,0,0,202.048,91.133Z" transform="translate(-197.05 -87.817)" fill="#108f6e"/>
    </g>
    <path id="Trazado_120121" data-name="Trazado 120121" d="M314.04,272.745a8.551,8.551,0,0,1-.4,2.873c-.487,1.492-1.334,3.424-1.285,4.128a1.026,1.026,0,0,0,1.686.532,58.358,58.358,0,0,0,6.226-6.1c.952-1.39,1.193-1.866,1.086-2.083a41.352,41.352,0,0,0-3.21-2.963C317.48,268.6,314.1,269.729,314.04,272.745Z" transform="translate(56.206 49.092)" fill="#91b31e"/>
    <g id="Grupo_57303" data-name="Grupo 57303" transform="translate(216.912 107.495)">
      <path id="Trazado_120122" data-name="Trazado 120122" d="M189.227,98.3a23.468,23.468,0,0,0,9.215,16.29c8.838,6.811,17.152,4.027,17.152,4.027s.573-8.748-8.267-15.559A23.468,23.468,0,0,0,189.227,98.3Z" transform="translate(-189.227 -98.012)" fill="#91b31e"/>
      <rect id="Rectángulo_17104" data-name="Rectángulo 17104" width="0.477" height="28.613" transform="translate(3.557 3.332) rotate(-52.384)" fill="#fff"/>
      <rect id="Rectángulo_17105" data-name="Rectángulo 17105" width="5.361" height="0.477" transform="matrix(1, -0.031, 0.031, 1, 6.482, 9.351)" fill="#fff"/>
      <rect id="Rectángulo_17106" data-name="Rectángulo 17106" width="0.477" height="5.361" transform="translate(8.775 2.985) rotate(-12.947)" fill="#fff"/>
      <rect id="Rectángulo_17107" data-name="Rectángulo 17107" width="5.361" height="0.477" transform="translate(12.314 13.845) rotate(-1.794)" fill="#fff"/>
      <rect id="Rectángulo_17108" data-name="Rectángulo 17108" width="0.477" height="5.361" transform="translate(14.607 7.479) rotate(-12.942)" fill="#fff"/>
      <rect id="Rectángulo_17109" data-name="Rectángulo 17109" width="5.361" height="0.477" transform="translate(18.145 18.338) rotate(-1.784)" fill="#fff"/>
      <rect id="Rectángulo_17110" data-name="Rectángulo 17110" width="0.477" height="5.361" transform="matrix(0.975, -0.224, 0.224, 0.975, 20.438, 11.972)" fill="#fff"/>
    </g>
    <path id="Trazado_120123" data-name="Trazado 120123" d="M225.563,98.079a18.69,18.69,0,0,0-12.973,7.339c-5.425,7.04-3.208,13.66-3.208,13.66s6.967.457,12.392-6.583A18.689,18.689,0,0,0,225.563,98.079Z" transform="translate(32.249 9.499)" fill="#bce13e"/>
    <g id="Grupo_57306" data-name="Grupo 57306" transform="translate(148.041 58.951)">
      <g id="Grupo_57304" data-name="Grupo 57304">
        <path id="Trazado_120124" data-name="Trazado 120124" d="M185.213,123.675l4.991-8.013a88.528,88.528,0,0,0-8.775-22.348,71.194,71.194,0,0,0-12.048-15.7l-6.74,4.737s.887-1.92,1.835-3.824l1.883-3.782A90.262,90.262,0,0,0,150.974,63.75c-2.436-1.34-4.569-2.465-6.554-3.335a31.149,31.149,0,0,0-5.067-1.817,28.433,28.433,0,0,0-3.609,7.634,42.616,42.616,0,0,0-1.442,5.749,56.41,56.41,0,0,0-.87,6.817l4.213,1.7,4.185,1.636-4.25.164-4.27.121a65.093,65.093,0,0,0,9.04,33.508,67.1,67.1,0,0,0,3.816,5.8c1.323,1.818,2.671,3.539,4.068,5.125l5.946-.367,5.928-.408-7.469,5.45a78.463,78.463,0,0,0,16.669,12.441c2.265,1.26,4.149,2.143,5.472,2.724s2.089.862,2.089.862l6.99-4.842,6.988-4.842s.042-.441.044-1.31-.01-2.123-.1-3.723a92.376,92.376,0,0,0-1.654-12.977Z" transform="translate(-133.309 -58.598)" fill="#91b31e"/>
      </g>
      <g id="Grupo_57305" data-name="Grupo 57305" transform="translate(11.834 14.071)">
        <path id="Trazado_120125" data-name="Trazado 120125" d="M185.8,138.569c-2.636-3.856-9.126-13.4-17.072-25.754-7.965-12.35-17.408-27.491-25.813-42.792,6.162,16.357,14.563,32.351,21.979,45.136,7.41,12.818,13.866,22.458,16.572,26.412l2.168-1.5Z" transform="translate(-142.917 -70.023)" fill="#fff"/>
      </g>
    </g>
    <g id="Grupo_57309" data-name="Grupo 57309" transform="translate(187.35 81.256)">
      <g id="Grupo_57307" data-name="Grupo 57307" transform="translate(0 0)">
        <path id="Trazado_120126" data-name="Trazado 120126" d="M187.672,127.56l5.22-3.137a56.835,56.835,0,0,0,1.5-15.457,45.9,45.9,0,0,0-2.373-12.608l-5.263.786,2.169-1.682,2.173-1.653a55.956,55.956,0,0,0-5.763-10.836,30.914,30.914,0,0,0-5.316-6.264c-2.233,1.2-5.972,4.612-9.11,10.011l1.953,2.171,1.956,2.133-2.506-1.117L169.8,88.762a42.243,42.243,0,0,0-4.487,21.81,48.45,48.45,0,0,0,1.335,8.557l7.046,3.027-5.888.939a51.056,51.056,0,0,0,5.911,12.021c.927,1.387,1.749,2.449,2.336,3.17s.943,1.108.943,1.108l5.436-.713,5.436-.713a29.888,29.888,0,0,0,1.455-2.907,59.379,59.379,0,0,0,2.868-7.945Z" transform="translate(-165.225 -76.708)" fill="#bce13e"/>
      </g>
      <g id="Grupo_57308" data-name="Grupo 57308" transform="translate(13.383 9.796)">
        <path id="Trazado_120127" data-name="Trazado 120127" d="M181.6,136.617c-.377-2.99-1.28-10.381-2.228-19.808s-1.962-20.9-2.466-32.147a220.212,220.212,0,0,0-.425,32.371c.5,9.53,1.36,16.963,1.746,20.026l1.686-.22Z" transform="translate(-176.091 -84.662)" fill="#fff"/>
      </g>
    </g>
    <path id="Trazado_120128" data-name="Trazado 120128" d="M303.43,171.475s8.029-22.31,7.025-43.94,5.353-37.87,15.723-36.608,19.4,40.4-20.072,82.89Z" transform="translate(54.139 7.826)" fill="#bce13e"/>
    <path id="Trazado_120129" data-name="Trazado 120129" d="M306.4,164.989l-.808-.507c.147-.232,14.575-23.484,15.134-49.135l.952.021C321.112,141.289,306.546,164.755,306.4,164.989Z" transform="translate(54.639 13.499)" fill="#fff"/>
    <path id="Trazado_120130" data-name="Trazado 120130" d="M305.244,163.6s14.4-7.5,29.161-8.817,25.2-7.124,23.384-14.042S328.591,131.3,303.409,162Z" transform="translate(54.134 18.357)" fill="#6f7302"/>
    <path id="Trazado_120131" data-name="Trazado 120131" d="M305.621,159.952l-.611-.732c.145-.122,14.754-12.194,32.326-14.974l.149.941C320.179,147.925,305.765,159.831,305.621,159.952Z" transform="translate(54.505 20.193)" fill="#fff"/>
    <g id="Grupo_57310" data-name="Grupo 57310" transform="translate(375.784 177.469)">
      <path id="Trazado_120132" data-name="Trazado 120132" d="M366.947,155.591a107.5,107.5,0,0,0-15.274-.714,49.99,49.99,0,0,0-18.721,4.257,24.159,24.159,0,0,0-12.229,12.861,32.694,32.694,0,0,0-2.458,8.565,26.823,26.823,0,0,0,7.928,4.239,23.355,23.355,0,0,0,18.6-1.154,42.547,42.547,0,0,0,15.535-13.7A47.786,47.786,0,0,0,366.947,155.591Z" transform="translate(-318.21 -154.825)" fill="#bce13e"/>
      <path id="Trazado_120133" data-name="Trazado 120133" d="M318.33,179.642l-.11-.275s2.644-1.057,6.566-2.753,9.118-4.031,14.245-6.514,10.181-5.114,13.914-7.189c1.875-1.022,3.412-1.92,4.486-2.552l1.69-.988.153.254-1.694.989c-1.075.633-2.613,1.532-4.492,2.556-3.738,2.078-8.793,4.72-13.929,7.2s-10.331,4.824-14.256,6.52S318.33,179.642,318.33,179.642Z" transform="translate(-318.22 -153.772)" fill="#fff"/>
      <path id="Trazado_120134" data-name="Trazado 120134" d="M341.266,166.619a7.129,7.129,0,0,1,.068-2.237,17.409,17.409,0,0,1,2.179-5.8l.251.149a17.179,17.179,0,0,0-2.128,5.694,9.024,9.024,0,0,0-.119,1.576,3.969,3.969,0,0,0,.042.563Z" transform="translate(-312.894 -153.955)" fill="#fff"/>
      <path id="Trazado_120135" data-name="Trazado 120135" d="M335.267,168.219l.219-.2a4.539,4.539,0,0,0,.509.442,10.044,10.044,0,0,0,1.6.989,18.206,18.206,0,0,0,7.153,1.776l-.025.3a18.547,18.547,0,0,1-7.27-1.8A7.911,7.911,0,0,1,335.267,168.219Z" transform="translate(-314.271 -151.769)" fill="#fff"/>
      <path id="Trazado_120136" data-name="Trazado 120136" d="M324.135,173.324l.228-.19a5.192,5.192,0,0,0,.563.532,11.618,11.618,0,0,0,1.786,1.211,21.053,21.053,0,0,0,8.105,2.375l-.036.3a21.362,21.362,0,0,1-8.219-2.4A8.99,8.99,0,0,1,324.135,173.324Z" transform="translate(-316.85 -150.584)" fill="#fff"/>
      <path id="Trazado_120137" data-name="Trazado 120137" d="M328.915,173.306a10.462,10.462,0,0,1,.267-3.32,26.4,26.4,0,0,1,3.662-8.468l.245.161a26.068,26.068,0,0,0-3.605,8.383,13.487,13.487,0,0,0-.3,2.352,6.16,6.16,0,0,0,.022.851Z" transform="translate(-315.751 -153.275)" fill="#fff"/>
      <path id="Trazado_120138" data-name="Trazado 120138" d="M345.416,163.015l.209-.211a4.751,4.751,0,0,0,1.28.78,11.132,11.132,0,0,0,4.253.86l-.01.3a11.461,11.461,0,0,1-4.383-.889A4.741,4.741,0,0,1,345.416,163.015Z" transform="translate(-311.92 -152.977)" fill="#fff"/>
    </g>
    <g id="Grupo_57311" data-name="Grupo 57311" transform="translate(375.648 203.558)">
      <path id="Trazado_120139" data-name="Trazado 120139" d="M354.589,205.605c-1.585-6.922-4.753-17.471-14.484-25.35s-21.8-2.389-21.8-2.389-2.168,13.06,8.071,20.446S347.577,205.957,354.589,205.605Z" transform="translate(-318.109 -176.008)" fill="#91b31e"/>
      <path id="Trazado_120140" data-name="Trazado 120140" d="M318.2,177.633l.15-.2,30.187,23.075-.148.2Z" transform="translate(-318.087 -175.677)" fill="#fff"/>
      <path id="Trazado_120141" data-name="Trazado 120141" d="M335.056,190.537a5.642,5.642,0,0,1,1.707-.744,13.721,13.721,0,0,1,5.184-.331l-.026.246a13.448,13.448,0,0,0-5.083.33,7.3,7.3,0,0,0-1.227.463,3.237,3.237,0,0,0-.41.234Z" transform="translate(-314.184 -172.914)" fill="#fff"/>
      <path id="Trazado_120142" data-name="Trazado 120142" d="M330.622,186.954l.23.089a3.875,3.875,0,0,0-.138.547,8.672,8.672,0,0,0-.143,1.563,16.211,16.211,0,0,0,1.246,5.98l-.23.09a16.455,16.455,0,0,1-1.272-6.072A6.751,6.751,0,0,1,330.622,186.954Z" transform="translate(-315.282 -173.472)" fill="#fff"/>
      <path id="Trazado_120143" data-name="Trazado 120143" d="M322.521,180.755l.232.089a4.533,4.533,0,0,0-.161.626,9.888,9.888,0,0,0-.168,1.79,18.454,18.454,0,0,0,1.415,6.845l-.23.089a18.7,18.7,0,0,1-1.445-6.932A7.7,7.7,0,0,1,322.521,180.755Z" transform="translate(-317.17 -174.908)" fill="#fff"/>
      <path id="Trazado_120144" data-name="Trazado 120144" d="M325.968,183.695a8.493,8.493,0,0,1,2.551-1.1,20.606,20.606,0,0,1,7.737-.48l-.026.245a20.348,20.348,0,0,0-7.65.489,10.967,10.967,0,0,0-1.849.695,4.778,4.778,0,0,0-.617.351Z" transform="translate(-316.289 -174.628)" fill="#fff"/>
      <path id="Trazado_120145" data-name="Trazado 120145" d="M338.151,192.727l.229.089a4.09,4.09,0,0,0-.16,1.244,9.615,9.615,0,0,0,.74,3.524l-.229.091a9.884,9.884,0,0,1-.762-3.63A4.1,4.1,0,0,1,338.151,192.727Z" transform="translate(-313.509 -172.135)" fill="#fff"/>
    </g>
    <path id="Trazado_120146" data-name="Trazado 120146" d="M120.368,255.9s-.342-.482-2.3.393-6.483,6.844-7.822,10.035a33.013,33.013,0,0,0,4.529,3.447,23.533,23.533,0,0,1,2.609-1.9,55.64,55.64,0,0,1-.653,9.262,54.9,54.9,0,0,1-1.424,5.558,24.527,24.527,0,0,0,13.927,1.286s.1-8.284.361-11.475,1.749-6.741.926-9.725-4.343-4.1-7.189-7.015Z" transform="translate(9.39 46.025)" fill="#fff"/>
    <path id="Trazado_120147" data-name="Trazado 120147" d="M124.865,250.716a8.261,8.261,0,0,0-1.524-4.157c-1.386-1.733-4.434-1.109-5.682,1.524a8.951,8.951,0,0,0-.993,3.909.925.925,0,0,0-1.2.036c-.93.633.478,2.865,1.893,2.479a4.924,4.924,0,0,0,1.2,1.441,4.263,4.263,0,0,0,.367,2.282c1.317,1.592,2.864,3.167,3.9,2.474s-.208-1.663-.554-2.217a.58.58,0,0,1,.094-.844C125.49,257.228,124.865,250.716,124.865,250.716Z" transform="translate(10.53 43.667)" fill="#ff9a5c"/>
    <path id="Trazado_120148" data-name="Trazado 120148" d="M122.5,248s-.809,3.036-2.617,3.7a3.7,3.7,0,0,0,.661-.875s-2.315,2.16-3.6,1.955c0,0-.824-.36-1.081-3.242s2.779-4.529,2.779-4.529h3.449l2.418,2.78.25,1.955A2.6,2.6,0,0,1,122.5,248Z" transform="translate(10.688 43.535)" fill="#753519"/>
    <path id="Trazado_120149" data-name="Trazado 120149" d="M126.619,277.95s-10.684-1.845-14.554-3.988-3.393-4.048-2.857-5.418,2.2-4.286,2.2-4.286l3.786,2.708-.1.845-.647,1.474s1.235.783,3.1,1.818,9.455,4.516,9.455,4.516S128.854,277.142,126.619,277.95Z" transform="translate(9.066 47.992)" fill="#ff9a5c"/>
    <g id="Grupo_57312" data-name="Grupo 57312" transform="translate(137.509 324.299)">
      <path id="Trazado_120150" data-name="Trazado 120150" d="M141.415,295.213l-2.162-11.75a2.807,2.807,0,0,0-1.6-2.048l-12.892-5.82.7-1.554,12.892,5.819a4.511,4.511,0,0,1,2.579,3.293l2.163,11.749Z" transform="translate(-124.758 -274.041)" fill="#108f6e"/>
    </g>
    <path id="Trazado_120151" data-name="Trazado 120151" d="M143.475,285.94s2.622-1.787,3.933-1.974,1.686,1.224,2.622.987a4.145,4.145,0,0,0,1.686-1l1.873,1s.187-.52,1.5,0,.563-.042,1.312.52a3.148,3.148,0,0,0,1.873.477,3.739,3.739,0,0,1,1.872,0c.937.273,2.335-.457,4.5,0s4.121-.461,5.244,0,1.686,2.1,2.622,1.652a16.819,16.819,0,0,0,2.435-1.652l1.5,2.622s.562-1.209,1.31,0a6.283,6.283,0,0,0,2.435,1.958,3.708,3.708,0,0,1,.937,1.148,14.571,14.571,0,0,1,1.012,3.435v1.123L153.963,295.1l-11.8-6.541Z" transform="translate(16.783 52.553)" fill="#753519"/>
    <g id="Grupo_57313" data-name="Grupo 57313" transform="translate(141.586 320.222)">
      <path id="Trazado_120152" data-name="Trazado 120152" d="M144.725,291.9l-2.162-11.75a2.805,2.805,0,0,0-1.6-2.048l-12.892-5.819.7-1.554,12.892,5.819a4.508,4.508,0,0,1,2.579,3.292l2.163,11.751Z" transform="translate(-128.068 -270.731)" fill="#108f6e"/>
    </g>
    <path id="Trazado_120153" data-name="Trazado 120153" d="M140.37,285.565s-2.383,7.4-3.01,8.656,1.505,5.77,1.505,5.77l22.455,11.04,21.954-15.18Z" transform="translate(15.644 52.928)" fill="#108f6e"/>
    <path id="Trazado_120154" data-name="Trazado 120154" d="M136.953,319.832a3.016,3.016,0,0,1-1.7-.448c-1.134-.741-1.536-2.319-1.3-5.114.457-5.486,4.269-20.715,4.43-21.36l.925.233c-.039.158-3.955,15.8-4.406,21.206-.2,2.371.081,3.718.876,4.237,1.2.782,3.986-.026,8.525-2.477,8.527-4.6,14.893-8.8,14.957-8.843l.526.8c-.064.042-6.464,4.261-15.031,8.886C141.136,318.9,138.653,319.832,136.953,319.832Z" transform="translate(14.866 54.629)" fill="#108f6e"/>
    <path id="Trazado_120155" data-name="Trazado 120155" d="M174.9,297.912a6.294,6.294,0,0,0-1.423,2.435c-.076.937,1.423,0,1.423,0s.749,1.02,1.5.416,0-1.33,0-1.33l.334-1.521Z" transform="translate(24.036 55.788)" fill="#753519"/>
    <g id="Grupo_57315" data-name="Grupo 57315" transform="translate(232.598 325.305)">
      <g id="Grupo_57314" data-name="Grupo 57314" transform="translate(8.545 12.096)">
        <path id="Trazado_120156" data-name="Trazado 120156" d="M231.206,322.327l-1.272.985-1.126-1.515c-.7-.968-1.7-2.351-2.839-4.047-2.3-3.381-5.22-7.987-7.875-12.747-2.673-4.754-5.05-9.67-6.688-13.422-.775-1.9-1.419-3.477-1.871-4.583l-.634-1.77,1.514-.548s.227.633.624,1.742c.446,1.091,1.081,2.651,1.845,4.521,1.618,3.7,3.968,8.566,6.614,13.273s5.525,9.282,7.8,12.629c1.129,1.681,2.116,3.048,2.807,4Z" transform="translate(-208.901 -284.679)" fill="#108f6e"/>
      </g>
      <path id="Trazado_120157" data-name="Trazado 120157" d="M213.706,279.453a6.63,6.63,0,0,1-.223,4.348,4.828,4.828,0,0,1-2.817,2.822,4.585,4.585,0,0,1-4.008-.532,6.751,6.751,0,0,1-2.748-3.865,8.039,8.039,0,0,1-.269-1.269,7.35,7.35,0,0,1,.006-1.255,6.507,6.507,0,0,1,.595-2.237,4.391,4.391,0,0,1,3.106-2.522,5.066,5.066,0,0,1,3.917.943,6.026,6.026,0,0,1,1.478,1.525,6.325,6.325,0,0,1,.531.964A6.517,6.517,0,0,1,213.706,279.453Z" transform="translate(-201.579 -274.858)" fill="#fce300"/>
      <path id="Trazado_120158" data-name="Trazado 120158" d="M211.745,281.23a11.455,11.455,0,0,0-.924-1.4,10.31,10.31,0,0,0-1.038-1.165,5.177,5.177,0,0,0-1.253-.974,5.129,5.129,0,0,0-.675,1.488,8.514,8.514,0,0,0-.232,1.562,11.645,11.645,0,0,0,.014,1.743,9.551,9.551,0,0,0-3.961-.551,7.618,7.618,0,0,0-1.713.3,9.863,9.863,0,0,0,6.345,5.439,7.76,7.76,0,0,0,3.4.159,9.155,9.155,0,0,0,2.527-2.308,11.165,11.165,0,0,0,2.185-7.382,8.416,8.416,0,0,0-1.618.621A8.705,8.705,0,0,0,211.745,281.23Z" transform="translate(-201.963 -274.202)" fill="#108f6e"/>
    </g>
    <path id="Trazado_120159" data-name="Trazado 120159" d="M178.158,300.382s-1.123,2.2-.936,2.764.936,0,.936,0,1.125.5,1.686.25a6.594,6.594,0,0,0,1.5-1.472h-2.072Z" transform="translate(24.899 56.36)" fill="#753519"/>
    <path id="Trazado_120160" data-name="Trazado 120160" d="M184.824,314.241s-4.7-.5-4.693,0,0,1.937,0,1.937a1.3,1.3,0,0,0-2.07,0,6.218,6.218,0,0,0-1.333,3.061,1.937,1.937,0,0,1-1.627,1.309,1.935,1.935,0,0,0-1.626,1.313,30.683,30.683,0,0,0,4.585,1.125,15.419,15.419,0,0,0,3.2,0,14.716,14.716,0,0,1,3.558.083c1.686.292,3.559.666,5.246.854s4.681-1.31,4.681-1.31a52.917,52.917,0,0,1,7.3.187,8.843,8.843,0,0,0,4.308-.563l.749-1.687a4.65,4.65,0,0,1-2.435-1.57c-.936-1.237-2.059-4.491-2.809-4.737a16.972,16.972,0,0,1-2.809-1.944s-1.873-2.891-2.061-4.717-2.622-3-2.622-3a3.322,3.322,0,0,0-1.872,1.861,1.9,1.9,0,0,1-2.21,1.138s-.975.161-1.537,1.79a17.751,17.751,0,0,0-.749,2.928s-2.248-.76-3.372,0S184.824,314.241,184.824,314.241Z" transform="translate(24.036 57.332)" fill="#753519"/>
    <rect id="Rectángulo_17111" data-name="Rectángulo 17111" width="1.906" height="7.822" transform="matrix(0.843, -0.538, 0.538, 0.843, 176.025, 363.693)" fill="#108f6e"/>
    <g id="Grupo_57316" data-name="Grupo 57316" transform="translate(350.781 343.229)">
      <rect id="Rectángulo_17112" data-name="Rectángulo 17112" width="34.987" height="2.008" transform="translate(0 32.651) rotate(-68.947)" fill="#91b31e"/>
    </g>
    <g id="Grupo_57317" data-name="Grupo 57317" transform="translate(363.35 343.229)">
      <rect id="Rectángulo_17113" data-name="Rectángulo 17113" width="2.008" height="34.986" transform="translate(0 0.721) rotate(-21.054)" fill="#91b31e"/>
    </g>
    <g id="Grupo_57318" data-name="Grupo 57318" transform="translate(359.047 356.199)">
      <rect id="Rectángulo_17114" data-name="Rectángulo 17114" width="10.86" height="2.007" fill="#91b31e"/>
    </g>
    <g id="Grupo_57319" data-name="Grupo 57319" transform="translate(356.55 363.376)">
      <rect id="Rectángulo_17115" data-name="Rectángulo 17115" width="15.74" height="2.007" fill="#91b31e"/>
    </g>
    <path id="Trazado_120161" data-name="Trazado 120161" d="M299.467,205.959a15.9,15.9,0,0,0-3.553,5.4,4.453,4.453,0,0,0,3.027,5.988,25.985,25.985,0,0,1,.526,4.014,10.967,10.967,0,0,0,3.027.394,8.275,8.275,0,0,0,1.974-.526v-4.212a10.972,10.972,0,0,0,2.565-3.421c.592-1.644,1.12-5.658-.789-7.632S300.518,204.795,299.467,205.959Z" transform="translate(52.331 34.211)" fill="#ff9a5c"/>
    <path id="Trazado_120162" data-name="Trazado 120162" d="M276.744,195.354s-.07.3-1.588.765-2.6.036-3.034,1.264.432,3.612-.506,4.117a4.265,4.265,0,0,0-1.228.867s2.382,3.035,3.178,4.335a4.688,4.688,0,0,0,1.446-2.384c.361-1.517,2.828-.788,3.394-1.3a11.42,11.42,0,0,0,1.169-1.3S278.764,196.433,276.744,195.354Z" transform="translate(46.485 32.031)" fill="#91b31e"/>
    <path id="Trazado_120163" data-name="Trazado 120163" d="M302.318,209.248s-2.647-1.846-3.263-3.571.123-3.314,1.632-3.135a14.541,14.541,0,0,1,2.308.426s1.405-1.786,3.842.493a7.15,7.15,0,0,1,2.13,5.478s3.078.862,1.846,3.755a7.306,7.306,0,0,1-3.976,3.833s-.394,1.876-1.441,1.976a6.687,6.687,0,0,0-1.67.349l.192-3.51a1.838,1.838,0,0,0,1.54-1.17c.554-1.169-1.17-.984-1.17-.984s-.984-1.786-.553-2.462C303.734,210.726,302.194,210.11,302.318,209.248Z" transform="translate(53.075 33.641)" fill="#753519"/>
    <path id="Trazado_120164" data-name="Trazado 120164" d="M294.794,217.8a63.294,63.294,0,0,1-8.756-8.655c-4.024-4.936-6.488-8.469-6.488-8.469a10.036,10.036,0,0,0-.822-3.777,5.669,5.669,0,0,0-1.4-2.053c-.494-.658-.49.533.132,1.692l.622,1.16s-1.612-2.574-2.206-2.489.113.934.424,1.386a3.561,3.561,0,0,1,.425,1.244s-1.16-1.781-1.556-1.471.424,1.387,1.075,2.234.762,2.178,1.159,2.884c0,0,5.6,14.523,13.573,20.763S294.794,217.8,294.794,217.8Z" transform="translate(47.57 31.871)" fill="#ff9a5c"/>
    <path id="Trazado_120165" data-name="Trazado 120165" d="M278.688,200.313a8.886,8.886,0,0,1,.243-1.044c.068-.1.286-.887.45-1.378s-.073-.966-.346-.729a3,3,0,0,0-.874,1.639A5.183,5.183,0,0,0,278.688,200.313Z" transform="translate(48.285 32.435)" fill="#ff9a5c"/>
    <path id="Trazado_120166" data-name="Trazado 120166" d="M308.8,227.7s3.572,4.332,4.938,5.015,4.968-2.319,6.828-5.767a51.946,51.946,0,0,0,2.82-6.065s2.415-1.75,3.1-3.42c0,0,.248-.746,0-.913s-.958,1.044-1.335,1.505c0,0,1.087-1.882.92-2.3s-1.714,1.756-1.714,1.756,1.213-2.217.794-2.259-1.589,1.966-1.589,1.966-.042-1.381-.459-1.3-.293,1.631-.293,1.631-.419,1.924-.669,2.552-5.52,6.648-6.189,6.816c0,0-2.133-3.011-4.1-3.6S308.8,227.7,308.8,227.7Z" transform="translate(55.382 36.641)" fill="#ff9a5c"/>
    <path id="Trazado_120167" data-name="Trazado 120167" d="M293.962,236.547s4.946,52.42,5.811,56.834c0,0,4.688.565,6.284,0,0,0-.351-31.918,0-35.2s3.181-20.033,2.163-22.3S293.962,236.547,293.962,236.547Z" transform="translate(51.945 41.221)" fill="#0e1a34"/>
    <path id="Trazado_120168" data-name="Trazado 120168" d="M308.252,235.607s1.76,20.969,2.634,24.18,10.352,16.776,10.352,16.776l-4.158,4.2s-8.6-8.715-11.092-11.884-6.79-16.412-6.79-16.412S301.687,232.325,308.252,235.607Z" transform="translate(53.158 41.272)" fill="#0e1a34"/>
    <path id="Trazado_120169" data-name="Trazado 120169" d="M267.915,145.007c-4.826-1.5-8.321-1.968-11.15-3.563s-5.657-2.775-7.821-2.685-6.656-1.089-9.319,0-5.481,6.573-9.562,7.575-14.333-1.16-17.195-2.99-3.675-5.492-2.852-7.322a15.433,15.433,0,0,0,.989-6.292c-.166-1.2,4.159-3.543,5.657-5.115s2.914-6.693-.629-9.255a120.7,120.7,0,0,0-46.066,21.3,7.427,7.427,0,0,0,1.1,2.854c1,1.664-.6,2.663-.551,3.162s.942.442.164,1.386.014.777-.714,1.443a21.375,21.375,0,0,1-1.894,1.664c-.5.333-.333,1.331-1.331,2.5s-2.829,2.163-2.829,3.993-2.829,4.327-3.162,5.326-3.162,4.826-3.328,7.321a43.922,43.922,0,0,0,0,6.657,15.674,15.674,0,0,1-.124,4.992,38.8,38.8,0,0,0-.874,6.822c-.166,3.328,1.165,4.826,4.327,5.824s9.144,3.828,10.646,5.991,2.334,4.826,3.5,5.158,2.164,3.828,5.991,6.491,10.983,3,14.144,6.408,8.986,11.717,10.484,16.3,3.994,6.27,6.657,8.5,5.989,4.731,8.486,4.9,3.514-.881,3.421-1.771-3.255-3.555-3.754-4.22-1.5-5.158-3-8.32-1.664-3.291-1.165-4.807,1.5-4.84,3-5.674,2.663-.225,3.66-1.695,1.351-2.3,1.259-3.215-1.591-1.487-3.089-1.618-2-1.462-3.993-1.8-4.826-1.164-5.492-2.329a3.141,3.141,0,0,0-3.162-1.331c-1,.166-3.994.666-5.991-1.331s-2.163-5.824-2.5-7.821-.666-2.662-.168-4.159.5-2.673,2.829-3.749,6.157-1.919,8.487,0,6.988.42,7.987-.744,3.827-4.659,6.157-4.827,6.157,0,7.655-1.33,7.156-4.138,8.153-6.4,4.826-8.806,4.826-10.939,6.99-6.295,8.986-5.629,4.659-2.5,5.658-2.5,3.993.5,5.658-1.5,2.994-3.338,4.326-5.247S272.741,146.5,267.915,145.007Z" transform="translate(20.083 13.501)" fill="#108f6e"/>
    <path id="Trazado_120170" data-name="Trazado 120170" d="M242.517,278.314a88.266,88.266,0,0,0-10.378-5.52c-4.768-2.006-8.28-9.11-9.535-10.576s-2.258-14.262,0-16.521,4.532-6.021,6.406-9.033,2.627-5.018,1.875-6.273-.753-8.378,0-9.583,4.516-3.463,6.273-3.212,7.276-1.293,9.534-.02,10.789,5.785,14.553,6.039,7.527,3.515,10.538,1.759,7.429.251,9.987,4.015,5.568,7.592,9.833,10.069,3.894,4.734,6.338,5.236,7.9,1.992,10.859,4.015,1.988,4.516-.454,7.527-5.478,7.778-7.472,10.789-1.267,7.527,0,8.782.264,6.524-1.493,8.029-5.519,4.014-7.025,6.774-1.36,4.807-4.819,6.041S276.3,301.4,271.53,302.527s-8.782,1.4-12.043,4.147-3.722,10.225-6.791,11.507-12.278,7.045-15.791,6.672-3.508-1.074-1.5-3.609,7.078-7,9.937-11.065-.907-8,1.6-9.644,2.947-6.54,3.732-7.982S251.246,283.1,242.517,278.314Z" transform="translate(35.105 37.061)" fill="#108f6e"/>
    <path id="Trazado_120171" data-name="Trazado 120171" d="M300.505,185.058c.5,1.022,3.178,2.194,5.185,3.2s3.893-.541,4.706-3.2,4.327-3.159,6.167-2.155a8.012,8.012,0,0,0,5.185,1.17c1.322-.33,3.883-1.314,3.949-1.34A121.569,121.569,0,0,0,290.674,135.4a26.167,26.167,0,0,1-3.551,4.018,12.562,12.562,0,0,0-3.28,4.677c-.567,1.17-2.239,6.189-1.57,8.363s.39,3.68,2.871,5.52,4.689,2.464,3.585,5.832-.267,6.966-1.439,8.763a6.035,6.035,0,0,0,1.439,7.652c2.743,2.341,6.255,1.84,7.092,2.006S300,184.034,300.505,185.058Z" transform="translate(49.202 18.144)" fill="#108f6e"/>
    <path id="Trazado_120172" data-name="Trazado 120172" d="M230.853,201.354a5.593,5.593,0,0,1-1.674,3.8c-1.673,1.505-3.345,4.181-1.673,4.516s5.185.828,6.023,1.334,5.185,2.848,6.355,2.011,2.008-2.844,3.179-3.01,1.505-3.133,2.509-4.075,4.516-4.289,4.85-6.965.67-6.69,0-7.694-5.353-1.673-5.854-3.011-3.484-2.341-5.757-1-3.276,4.349-3.61,6.524S230.685,197.55,230.853,201.354Z" transform="translate(36.391 30.01)" fill="#108f6e"/>
    <g id="Grupo_57321" data-name="Grupo 57321" transform="translate(337.786 103.017)">
      <g id="Grupo_57320" data-name="Grupo 57320" transform="translate(0 13.453)">
        <path id="Trazado_120173" data-name="Trazado 120173" d="M288.746,149.182l-1.378-1.036s.411-.543,1.086-1.6,1.606-2.584,2.636-4.477A106.513,106.513,0,0,0,297.5,127.6a126.543,126.543,0,0,0,4.413-15.226c.528-2.1.792-3.887,1.047-5.124l.369-1.95,1.7.292s-.135.718-.373,1.973c-.259,1.253-.526,3.061-1.06,5.188a127.861,127.861,0,0,1-4.473,15.43A108.215,108.215,0,0,1,292.6,142.89c-1.052,1.934-2,3.508-2.7,4.59C289.211,148.564,288.746,149.182,288.746,149.182Z" transform="translate(-287.368 -105.299)" fill="#108f6e"/>
      </g>
      <path id="Trazado_120174" data-name="Trazado 120174" d="M308.3,101.516c-.512,3.715-3.372,6.3-6.331,5.783s-4.961-3.691-4.487-7.093c.34-3.423,3.054-6.026,6.056-5.817S308.676,97.79,308.3,101.516Z" transform="translate(-285.041 -94.376)" fill="#fce300"/>
      <path id="Trazado_120175" data-name="Trazado 120175" d="M305.384,102.312a11.029,11.029,0,0,0-.266-1.828,7.391,7.391,0,0,0-1.479-3.077,7.383,7.383,0,0,0-2.053,2.646,14,14,0,0,0-.756,1.649,9.583,9.583,0,0,0-5.451-2.511,11.35,11.35,0,0,0,3.61,7.535,9.39,9.39,0,0,0,3.066,1.947,8.638,8.638,0,0,0,3.586-.8c1.988-.884,4.28-2.79,5.707-6.744A10.109,10.109,0,0,0,305.384,102.312Z" transform="translate(-285.513 -93.674)" fill="#108f6e"/>
    </g>
    <path id="Trazado_120176" data-name="Trazado 120176" d="M272.548,72.642a17.04,17.04,0,0,0-4.268,1.941c-2.823,1.632-9.158,7.9-9.158,7.9a24.342,24.342,0,0,0,5.269,6.461,47.19,47.19,0,0,0,4.328-2.195s1.756,8.468-1.756,13.674a9.388,9.388,0,0,0,5.332,2.886c3.324.5,6.837.438,9.723,2.509s7.589,1.882,9.6,0a27.6,27.6,0,0,0,0-12.608,32.211,32.211,0,0,0-4.14-9.471l1.067.815s3.638-3.951,3.825-7.025c0,0-4.2-4.328-7.212-5.959a10.051,10.051,0,0,0-8.8,0A11.058,11.058,0,0,1,272.548,72.642Z" transform="translate(43.875 3.122)" fill="#fff"/>
    <path id="Trazado_120177" data-name="Trazado 120177" d="M264.72,67c.03.278.745,3.727,2.423,5.4s2.981.652,3.447.839.745,1.49.745,2.421,1.49,1.863,2.888.839.652-5.776.652-5.776a5.747,5.747,0,0,0,.2-3.727s.714-1.77.212-2.795-1.249-.745-1.621,0c0,0-1.77-3.26-4.378-2.7S264.348,63.459,264.72,67Z" transform="translate(45.163 1.011)" fill="#ff9a5c"/>
    <path id="Trazado_120178" data-name="Trazado 120178" d="M278.014,66.054c-.839-1.118-.28-4.007-1.368-5.683s-3.383-1.118-3.383-1.118-.559-2.515-2.7-2.143-4.1,3.261-4.1,3.261a6.965,6.965,0,0,0-3.168,0c-2.049.372-4.378,1.77-3.54,3.819s4.005,1.934,4.005,1.934-.837,4.029,2.1,2.912c.087-.033.161-.079.243-.118a8.912,8.912,0,0,1-.2-.908,4.364,4.364,0,0,1,2.493-4.8h0a8.7,8.7,0,0,1,2.073-.7c2.609-.559,4.378,2.7,4.378,2.7.373-.745,1.118-1.025,1.621,0s-.212,2.795-.212,2.795a6.026,6.026,0,0,1,.078,2.839,1.81,1.81,0,0,0,.313.049C279.378,70.9,278.853,67.173,278.014,66.054Z" transform="translate(43.981)" fill="#753519"/>
    <path id="Trazado_120179" data-name="Trazado 120179" d="M265.135,68.348s3.21-1.357,3.438-6.159c0,0,.987,2.994,5.3,2.457,0,0-.34-4-3.9-5s-6.159,4.927-6.159,4.927A4.14,4.14,0,0,0,265.135,68.348Z" transform="translate(44.951 0.569)" fill="#753519"/>
    <path id="Trazado_120180" data-name="Trazado 120180" d="M270.024,127.816c-.672-5.646-1.788-11.279-1.8-11.336l.468-.094c.011.057,1.129,5.709,1.8,11.372Z" transform="translate(45.984 13.739)" fill="#fff"/>
    <path id="Trazado_120181" data-name="Trazado 120181" d="M128.4,270.64a13.367,13.367,0,0,1,1.548.116c.553.1.909.881,1.067,1.195s-.533.282-.878-.156-.418-.549-.418-.549a1.925,1.925,0,0,0-.822,0c-.3.11-.661-.241-.722-.489S128.4,270.64,128.4,270.64Z" transform="translate(13.54 49.462)" fill="#ff9a5c"/>
    <path id="Trazado_120182" data-name="Trazado 120182" d="M123.188,275.71a6.873,6.873,0,0,0,2.011,1.443c.084.722.5,1.027.734,1s.238-1.111.238-1.111c.208.5,1.028,1,1.139.695a1.817,1.817,0,0,0,0-.805s.333.443.583.443.555-.222.445-.777a5.386,5.386,0,0,0-.777-1.833c-.334-.443-.528-.888-1.25-1.054a12.026,12.026,0,0,0-1.8-.139,15.722,15.722,0,0,0-2.083,0Z" transform="translate(12.21 50.141)" fill="#ff9a5c"/>
    <path id="Trazado_120183" data-name="Trazado 120183" d="M123.278,274.076v-.448a9.393,9.393,0,0,1,2.431-.473c.4.142.782.709,1.005.921S123.278,274.076,123.278,274.076Z" transform="translate(12.408 50.048)" fill="#ff9a5c"/>
    <circle id="Elipse_4462" data-name="Elipse 4462" cx="8.732" cy="8.732" r="8.732" transform="translate(175.903 368.376)" fill="#0e1a34"/>
    <path id="Trazado_120184" data-name="Trazado 120184" d="M163.754,321.552a3.9,3.9,0,1,1,3.9-3.9A3.905,3.905,0,0,1,163.754,321.552Zm0-7.324a3.424,3.424,0,1,0,3.424,3.424A3.428,3.428,0,0,0,163.754,314.228Z" transform="translate(20.881 59.457)" fill="#fff"/>
    <path id="Trazado_120185" data-name="Trazado 120185" d="M248.755,202.238A26.35,26.35,0,0,0,245.4,206c-1.382,1.968,2.368.982,3.356,1.179s1.184,1.622,3.158,1.107a11.074,11.074,0,0,0,1.974-.515,15.018,15.018,0,0,1,4.147-.592c1.776-.2,1.426-1.488,2.391-2.62s1.01-2.118,0-3.106-1.6,1.974-3.575,0-1.909-3.67-3.718-2.822-1.34,1.147-2.168,1.886S248.755,202.238,248.755,202.238Z" transform="translate(40.626 32.738)" fill="#108f6e"/>
    <path id="Trazado_120186" data-name="Trazado 120186" d="M303.177,217.539A14.7,14.7,0,0,1,292.553,213a23.246,23.246,0,0,0-5.067,6.053,27.55,27.55,0,0,0,7.567,6.053s-1.818,15.295-.856,20.6c0,0,6.384,1.185,10.331,1.448a33.513,33.513,0,0,0,8.817-.988l-1.118-18.885,1.118,1.315s4.08-3.75,4.146-5.79c0,0-5.818-5.462-8.338-6.317S305.629,217.735,303.177,217.539Z" transform="translate(50.445 36.118)" fill="#fff"/>
    <path id="Trazado_120187" data-name="Trazado 120187" d="M303.941,265.105l-.477-.007c.007-.431.176-10.535.475-11.93.292-1.37,2.047-10.9,2.065-11l.469.086c-.018.1-1.775,9.638-2.069,11.015C304.116,254.616,303.942,265,303.941,265.105Z" transform="translate(54.146 42.875)" fill="#fff"/>
    <path id="Trazado_120188" data-name="Trazado 120188" d="M244.852,330.293h-9.739s-5.334-35.7,0-43.235S251.628,282.085,244.852,330.293Z" transform="translate(37.765 52.53)" fill="#ffd200"/>
    <path id="Trazado_120189" data-name="Trazado 120189" d="M237.247,325.762h-8.693s-11.4-3.557-16.864-12.25,2.639-12.379,8.566-8.66S237.247,325.762,237.247,325.762Z" transform="translate(32.47 57.061)" fill="#ffd200"/>
    <path id="Trazado_120190" data-name="Trazado 120190" d="M238.373,328.5h-5.334s-12.645-12.486-14.225-27.581,10.471-10.193,15.806,3.063a84.923,84.923,0,0,1,5.928,24.518Z" transform="translate(34.505 54.327)" fill="#91b31e"/>
    <path id="Trazado_120191" data-name="Trazado 120191" d="M245.142,325.762h8.693s11.4-3.557,16.865-12.25-2.639-12.379-8.567-8.66S245.142,325.762,245.142,325.762Z" transform="translate(40.637 57.061)" fill="#ffd200"/>
    <path id="Trazado_120192" data-name="Trazado 120192" d="M242.984,328.5h5.334s12.645-12.486,14.225-27.581-10.471-10.193-15.806,3.063a84.9,84.9,0,0,0-5.927,24.518Z" transform="translate(39.634 54.327)" fill="#91b31e"/>
    <path id="Trazado_120193" data-name="Trazado 120193" d="M267.074,193.149l.516-1.054.671.963,1.054.516-.963.671-.516,1.054-.671-.963-1.054-.516Z" transform="translate(45.494 31.276)" fill="#fff"/>
    <path id="Trazado_120194" data-name="Trazado 120194" d="M282.023,196.614l.314-.641.408.586.641.314-.586.408-.314.641-.408-.586-.641-.314Z" transform="translate(49.044 32.175)" fill="#fff"/>
    <path id="Trazado_120195" data-name="Trazado 120195" d="M284.446,189.6l.314-.641.408.586.641.314-.586.408-.314.641-.408-.586-.641-.314Z" transform="translate(49.605 30.551)" fill="#fff"/>
    <path id="Trazado_120196" data-name="Trazado 120196" d="M263.38,186.988l.314-.641.408.586.641.314-.586.408-.314.641-.408-.586-.641-.314Z" transform="translate(44.726 29.945)" fill="#fff"/>
    <path id="Trazado_120197" data-name="Trazado 120197" d="M266.524,206.2l.314-.641.408.586.641.314-.586.408-.314.641-.408-.586-.641-.314Z" transform="translate(45.454 34.395)" fill="#fff"/>
    <g id="Grupo_57322" data-name="Grupo 57322" transform="translate(239.562 95.253)">
      <path id="Trazado_120198" data-name="Trazado 120198" d="M213.154,88.615l-.193-.138c.188-.265.3-.405.3-.405l.19.144S213.339,88.356,213.154,88.615Z" transform="translate(-206.379 -88.072)" fill="#fff"/>
      <path id="Trazado_120199" data-name="Trazado 120199" d="M208.018,102.023l-.233-.052.048-.211.232.055C208.049,101.884,208.034,101.953,208.018,102.023Zm.289-1.168-.23-.063q.131-.484.277-.958l.228.07C208.486,100.219,208.393,100.535,208.307,100.856Zm.579-1.894-.225-.076q.161-.477.335-.94l.223.083Q209.047,98.49,208.886,98.961Zm.691-1.857-.22-.089c.126-.313.255-.62.385-.921l.219.1Q209.765,96.639,209.577,97.1Zm.789-1.82-.217-.1c.142-.307.286-.607.43-.9l.214.106C210.651,94.68,210.507,94.978,210.367,95.284Zm.876-1.78-.212-.11q.236-.454.47-.879l.208.115Q211.476,93.051,211.242,93.5Zm.952-1.74-.206-.119c.174-.3.342-.587.506-.858l.2.123C212.535,91.179,212.368,91.463,212.194,91.764Zm1.027-1.7-.2-.128c.2-.31.379-.59.544-.836l.2.132C213.6,89.48,213.417,89.758,213.221,90.066Z" transform="translate(-207.578 -87.833)" fill="#fff"/>
      <path id="Trazado_120200" data-name="Trazado 120200" d="M207.851,100.51l-.234-.043c.031-.165.062-.33.095-.5l.234.048C207.913,100.184,207.881,100.348,207.851,100.51Z" transform="translate(-207.617 -85.316)" fill="#fff"/>
    </g>
    <g id="Grupo_57323" data-name="Grupo 57323" transform="translate(246.83 95.861)">
      <path id="Trazado_120201" data-name="Trazado 120201" d="M214.588,89.1l-.234-.043c.06-.318.1-.491.1-.491l.234.049S214.647,88.786,214.588,89.1Z" transform="translate(-213.324 -88.566)" fill="#fff"/>
      <path id="Trazado_120202" data-name="Trazado 120202" d="M213.536,100.717c-.01-.333-.016-.666-.018-1h.239c0,.329.009.66.018.991Zm.224-1.99-.238,0c0-.335.014-.666.025-1l.239.009C213.774,98.063,213.766,98.394,213.761,98.726Zm.07-1.983-.238-.012c.018-.336.039-.669.063-1l.238.017C213.87,96.078,213.849,96.41,213.831,96.744Zm.142-1.98-.236-.021c.03-.339.062-.67.095-.991l.238.025C214.034,94.1,214,94.426,213.972,94.763Zm.207-1.974-.236-.028q.061-.517.126-.989l.236.032Q214.24,92.273,214.179,92.789Zm.265-1.967-.235-.036c.054-.362.107-.692.156-.984l.235.038C214.551,90.132,214.5,90.461,214.444,90.822Z" transform="translate(-213.518 -88.28)" fill="#fff"/>
      <path id="Trazado_120203" data-name="Trazado 120203" d="M213.645,100.5c-.015-.166-.028-.334-.041-.5l.236-.018c.014.166.027.333.042.5Z" transform="translate(-213.498 -85.922)" fill="#fff"/>
    </g>
    <path id="Trazado_120204" data-name="Trazado 120204" d="M210.557,106.341q-.018-.246-.03-.491l.238-.011c.009.161.018.323.028.485Zm-.06-1.447c0-.128,0-.256,0-.383,0-.192,0-.384.006-.574l.238,0c0,.19,0,.379,0,.57,0,.127,0,.252,0,.379Zm.277-1.9-.238-.012q.026-.482.066-.955l.238.02Q210.8,102.514,210.774,102.992Zm.161-1.892-.236-.028q.055-.478.124-.948l.235.034C211.014,100.469,210.972,100.783,210.935,101.1Zm.275-1.879-.235-.042q.085-.479.179-.94l.234.047C211.324,98.593,211.266,98.9,211.21,99.221Zm.378-1.863-.232-.053q.109-.475.228-.93l.23.059C211.737,96.735,211.66,97.043,211.588,97.357Zm.475-1.841-.229-.065q.135-.471.273-.916l.228.07C212.243,94.9,212.153,95.2,212.063,95.516Zm.565-1.815-.225-.076c.106-.315.213-.616.318-.9l.223.083C212.84,93.089,212.734,93.388,212.628,93.7Zm.654-1.786-.222-.087c.127-.321.249-.618.362-.886l.22.092C213.529,91.3,213.408,91.595,213.282,91.915Zm.745-1.75-.217-.1c.255-.552.415-.854.421-.866l.211.112S214.279,89.619,214.028,90.165Z" transform="translate(32.611 7.442)" fill="#fff"/>
    <path id="Trazado_120205" data-name="Trazado 120205" d="M117.252,265.645c-.1-.063-.209-.118-.31-.182a37.37,37.37,0,0,0-5.1-3.1,2.211,2.211,0,0,1-.208-.116,19.61,19.61,0,0,0-1.383,2.58,33.017,33.017,0,0,0,4.529,3.447s1.14-.948,2.068-1.568A8.659,8.659,0,0,1,117.252,265.645Z" transform="translate(9.39 47.527)" fill="#fff"/>
  </g>
</svg>
