<svg xmlns="http://www.w3.org/2000/svg" xmlns:xlink="http://www.w3.org/1999/xlink" width="85" height="85" viewBox="0 0 85 85">
  <defs>
    <linearGradient id="linear-gradient" y1="0.5" x2="1" y2="0.5" gradientUnits="objectBoundingBox">
      <stop offset="0" stop-color="#fefff2"/>
      <stop offset="1" stop-color="#bfc288"/>
    </linearGradient>
  </defs>
  <g id="Grupo_62561" data-name="Grupo 62561" transform="translate(-3160.783 -176.185)">
    <circle id="Elipse_4481" data-name="Elipse 4481" cx="42.5" cy="42.5" r="42.5" transform="translate(3160.783 176.185)" fill="url(#linear-gradient)"/>
    <path id="Trazado_131810" data-name="Trazado 131810" d="M3203.283,176.185a42.494,42.494,0,0,0-41.951,49.3h83.9a42.5,42.5,0,0,0-41.952-49.3Z" fill="#bfc288"/>
    <g id="Grupo_62561-2" data-name="Grupo 62561">
      <path id="Trazado_131811" data-name="Trazado 131811" d="M3192.515,202.3c0,.124-.069.186-.2.186-.236,0-1.165-.046-2.792-.139q-.057,2.346-.056,3.274,0,1.094.089,3.292t.088,3.293c0,.117-.029.192-.084.222a1.085,1.085,0,0,1-.259.047,13.458,13.458,0,0,1-1.633.074,12.877,12.877,0,0,1-1.679-.074.273.273,0,0,1-.259-.288q0-1.094.092-3.283t.093-3.283q0-.725-.074-3.228-1.854.186-2.959.186c-.1,0-.149-.031-.149-.093a5.564,5.564,0,0,1,.13-.714q.15-.649.167-.789c.019-.29.04-.581.066-.872q.064-.694.222-.7l.13.009a37.388,37.388,0,0,0,4.443.2q.834,0,3.079-.176l1.215-.093a.522.522,0,0,1,.214.023.355.355,0,0,1,.037.181c0,.167-.007.4-.019.7-.013.328-.018.559-.018.695a5.562,5.562,0,0,0,.059.682A5.682,5.682,0,0,1,3192.515,202.3Z" fill="#f1f2d9"/>
      <path id="Trazado_131812" data-name="Trazado 131812" d="M3197.273,205.618q0,1.094.056,3.292t.056,3.293c0,.124-.029.2-.084.232a2.145,2.145,0,0,1-.241.037,13.962,13.962,0,0,1-1.614.074,11.874,11.874,0,0,1-1.725-.074c-.18-.037-.269-.133-.269-.288q0,.148.083-1.632.167-3.756.167-4.934,0-.993-.064-2.977t-.066-2.977c0-.137.072-.205.214-.205.192,0,.481.01.867.028s.675.028.868.028.473-.009.848-.028.656-.028.849-.028c.178,0,.268.068.268.205q0,.991-.106,2.977T3197.273,205.618Z" fill="#f1f2d9"/>
      <path id="Trazado_131813" data-name="Trazado 131813" d="M3210.275,204.421a5.437,5.437,0,0,1-1.177,3.636,4.334,4.334,0,0,1-3.478,1.475q-.371,0-1.118-.042t-1.117-.042q-.4,0-.4.344,0,.426.083,1.27t.084,1.261c0,.143-.065.214-.2.214q-.565,0-1.7-.033c-.754-.022-1.321-.032-1.7-.032a.237.237,0,0,1-.268-.269q0-1.029.032-3.094t.032-3.092q0-2.913-.25-6.122l-.009-.129c-.012-.118.08-.189.278-.214q.723-.093,3.19-.093,1.456,0,2.792.038a5.071,5.071,0,0,1,3.543,1.381A4.757,4.757,0,0,1,3210.275,204.421Zm-3.7.149a1.886,1.886,0,0,0-2.1-2.161q-1.485,0-1.558.167a14.892,14.892,0,0,0-.065,2.142c0,.192.007.475.023.849s.024.657.024.849c0,.123.555.185,1.669.185A1.787,1.787,0,0,0,3206.575,204.57Z" fill="#f1f2d9"/>
      <path id="Trazado_131814" data-name="Trazado 131814" d="M3224.429,205.979a6.8,6.8,0,0,1-1.846,4.851,6.683,6.683,0,0,1-9.524-.018,7.242,7.242,0,0,1,0-9.683,6.616,6.616,0,0,1,9.5,0A6.816,6.816,0,0,1,3224.429,205.979Zm-3.515-.018a3.484,3.484,0,0,0-.844-2.365,2.847,2.847,0,0,0-2.254-1.02,2.814,2.814,0,0,0-2.216,1.057,3.679,3.679,0,0,0-.056,4.711,2.988,2.988,0,0,0,4.5-.055A3.439,3.439,0,0,0,3220.914,205.961Z" fill="#f1f2d9"/>
    </g>
    <ellipse id="Elipse_4605" data-name="Elipse 4605" cx="30.425" cy="2.504" rx="30.425" ry="2.504" transform="translate(3173.992 240.748)" fill="#3f3f3f" opacity="0.17"/>
    <g id="Grupo_62562" data-name="Grupo 62562">
      <path id="Trazado_131815" data-name="Trazado 131815" d="M3194.807,242.926h-16.992v-.577q.252,0,.686-.018t1.425-.145a2.192,2.192,0,0,0,1.407-.6,2.814,2.814,0,0,0,.522-1.587l.073-1.66V221.209l-.073-1.659a3,3,0,0,0-.486-1.606,2.335,2.335,0,0,0-1.5-.6l-1.948-.144v-.577h16.883v.577l-1.949.108a2.347,2.347,0,0,0-1.5.523,2.935,2.935,0,0,0-.487,1.642l-.071,1.659v17.28l.071,1.659a1.9,1.9,0,0,0,2.057,2.164l1.876.109Z" fill="#3f3e1e"/>
      <path id="Trazado_131816" data-name="Trazado 131816" d="M3212.339,242.926h-16.991v-.577c.168,0,.4-.006.685-.018s.764-.06,1.425-.145a2.192,2.192,0,0,0,1.407-.6,2.811,2.811,0,0,0,.523-1.587l.072-1.66V221.209l-.072-1.659a3.012,3.012,0,0,0-.487-1.606,2.335,2.335,0,0,0-1.5-.6l-1.948-.144v-.577h16.883v.577l-1.948.108a2.345,2.345,0,0,0-1.5.523,2.944,2.944,0,0,0-.488,1.642l-.071,1.659v17.28l.071,1.659a1.9,1.9,0,0,0,2.057,2.164l1.876.109Z" fill="#3f3e1e"/>
      <path id="Trazado_131817" data-name="Trazado 131817" d="M3229.87,242.926h-16.991v-.577c.168,0,.4-.006.685-.018s.764-.06,1.425-.145a2.192,2.192,0,0,0,1.407-.6,2.8,2.8,0,0,0,.523-1.587l.072-1.66V221.209l-.072-1.659a3.007,3.007,0,0,0-.486-1.606,2.336,2.336,0,0,0-1.5-.6l-1.949-.144v-.577h16.883v.577l-1.948.108a2.347,2.347,0,0,0-1.5.523,2.937,2.937,0,0,0-.487,1.642l-.072,1.659v17.28l.072,1.659a1.9,1.9,0,0,0,2.056,2.164l1.876.109Z" fill="#3f3e1e"/>
    </g>
  </g>
</svg>
