<svg xmlns="http://www.w3.org/2000/svg" width="85" height="85" viewBox="0 0 85 85">
  <g id="Grupo_57263" data-name="Grupo 57263" transform="translate(1009.808 -1164.384)">
    <circle id="Elipse_4450" data-name="Elipse 4450" cx="42.5" cy="42.5" r="42.5" transform="translate(-1009.808 1164.384)" fill="#529ad9"/>
    <path id="Trazado_101027" data-name="Trazado 101027" d="M-935.427,1189.556a41.329,41.329,0,0,0-2.083-12.965,42.348,42.348,0,0,0-29.8-12.207,42.5,42.5,0,0,0-42.5,42.5,42.634,42.634,0,0,0,.936,8.881,41.315,41.315,0,0,0,32.044,15.191A41.4,41.4,0,0,0-935.427,1189.556Z" transform="translate(0 0)" fill="#87bdec"/>
    <g id="Grupo_54623" data-name="Grupo 54623" transform="translate(-988.142 1188.962)">
      <path id="Trazado_101028" data-name="Trazado 101028" d="M-971.461,1218.88q0,8.08-9.107,8.078-9.084,0-9.084-8.078v-23.532q0-8.1,9.084-8.1,9.105,0,9.107,8.1Zm-6.333-23.532q0-2.607-2.753-2.609h-.044q-2.73,0-2.73,2.609v23.532q0,2.607,2.753,2.608,2.773,0,2.774-2.608Z" transform="translate(989.652 -1187.249)" fill="#fff"/>
      <path id="Trazado_101029" data-name="Trazado 101029" d="M-967.526,1218.094q0-5.2,5.907-8.9,5.929-3.705,5.952-6.294v-7.55q0-2.607-2.73-2.609h-.044q-2.752,0-2.752,2.609v5.158h-6.332v-5.158q0-8.1,9.084-8.1,9.105,0,9.106,8.1v7.688q0,5.293-5.929,9.02-5.929,3.705-5.928,6.511v2.313h11.858v5.471h-18.19Z" transform="translate(991.31 -1187.249)" fill="#fff"/>
    </g>
  </g>
</svg>
