<svg xmlns="http://www.w3.org/2000/svg" xmlns:xlink="http://www.w3.org/1999/xlink" width="85" height="85" viewBox="0 0 85 85">
  <defs>
    <linearGradient id="linear-gradient" y1="0.5" x2="1" y2="0.5" gradientUnits="objectBoundingBox">
      <stop offset="0" stop-color="#fefff2"/>
      <stop offset="1" stop-color="#bfc288"/>
    </linearGradient>
  </defs>
  <g id="Grupo_62559" data-name="Grupo 62559" transform="translate(-3255.744 -176.185)">
    <circle id="Elipse_4481" data-name="Elipse 4481" cx="42.5" cy="42.5" r="42.5" transform="translate(3255.744 176.185)" fill="url(#linear-gradient)"/>
    <path id="Trazado_131803" data-name="Trazado 131803" d="M3298.244,176.185a42.494,42.494,0,0,0-41.951,49.3h83.9a42.5,42.5,0,0,0-41.951-49.3Z" fill="#bfc288"/>
    <g id="Grupo_62559-2" data-name="Grupo 62559">
      <path id="Trazado_131804" data-name="Trazado 131804" d="M3287.475,202.3q0,.186-.2.186-.353,0-2.792-.139-.056,2.346-.055,3.274,0,1.094.088,3.292t.088,3.293c0,.117-.028.192-.084.222a1.062,1.062,0,0,1-.258.047,13.481,13.481,0,0,1-1.633.074,12.869,12.869,0,0,1-1.679-.074.273.273,0,0,1-.26-.288q0-1.094.093-3.283t.093-3.283q0-.725-.074-3.228-1.856.186-2.959.186c-.1,0-.149-.031-.149-.093a5.539,5.539,0,0,1,.13-.714q.15-.649.167-.789c.019-.29.04-.581.065-.872.043-.463.118-.7.223-.7l.13.009a37.369,37.369,0,0,0,4.442.2q.836,0,3.079-.176l1.215-.093a.518.518,0,0,1,.214.023c.019.016.03.076.037.181,0,.167-.007.4-.018.7-.013.328-.019.559-.019.695a5.606,5.606,0,0,0,.06.682A5.593,5.593,0,0,1,3287.475,202.3Z" fill="#fffffa"/>
      <path id="Trazado_131805" data-name="Trazado 131805" d="M3292.234,205.618q0,1.094.056,3.292t.055,3.293c0,.124-.028.2-.084.232a2.052,2.052,0,0,1-.241.037,13.931,13.931,0,0,1-1.613.074,11.891,11.891,0,0,1-1.726-.074c-.179-.037-.268-.133-.268-.288q0,.148.083-1.632.166-3.756.167-4.934,0-.993-.065-2.977t-.065-2.977c0-.137.071-.205.214-.205.191,0,.48.01.867.028s.675.028.867.028.474-.009.849-.028.656-.028.848-.028.269.068.269.205q0,.991-.106,2.977T3292.234,205.618Z" fill="#fffffa"/>
      <path id="Trazado_131806" data-name="Trazado 131806" d="M3305.236,204.421a5.439,5.439,0,0,1-1.178,3.636,4.333,4.333,0,0,1-3.477,1.475q-.371,0-1.118-.042c-.5-.028-.871-.042-1.118-.042q-.4,0-.4.344,0,.426.083,1.27t.084,1.261c0,.143-.065.214-.2.214q-.565,0-1.7-.033t-1.7-.032a.237.237,0,0,1-.268-.269q0-1.029.032-3.094t.032-3.092q0-2.913-.25-6.122l-.01-.129c-.011-.118.08-.189.279-.214q.723-.093,3.19-.093,1.456,0,2.792.038a5.073,5.073,0,0,1,3.543,1.381A4.757,4.757,0,0,1,3305.236,204.421Zm-3.7.149a1.886,1.886,0,0,0-2.106-2.161q-1.484,0-1.557.167a14.833,14.833,0,0,0-.066,2.142q0,.288.024.849t.023.849q0,.185,1.669.185A1.787,1.787,0,0,0,3301.536,204.57Z" fill="#fffffa"/>
      <path id="Trazado_131807" data-name="Trazado 131807" d="M3319.389,205.979a6.8,6.8,0,0,1-1.845,4.851,6.684,6.684,0,0,1-9.525-.018,7.246,7.246,0,0,1,0-9.683,6.618,6.618,0,0,1,9.506,0A6.82,6.82,0,0,1,3319.389,205.979Zm-3.514-.018a3.489,3.489,0,0,0-.844-2.365,2.925,2.925,0,0,0-4.471.037,3.677,3.677,0,0,0-.055,4.711,2.988,2.988,0,0,0,4.5-.055A3.439,3.439,0,0,0,3315.875,205.961Z" fill="#fffffa"/>
    </g>
    <g id="Grupo_62560" data-name="Grupo 62560">
      <path id="Trazado_131808" data-name="Trazado 131808" d="M3297.974,242.926h-16.992v-.577q.252,0,.686-.018t1.425-.145a2.192,2.192,0,0,0,1.407-.6,2.814,2.814,0,0,0,.522-1.587l.073-1.66V221.209l-.073-1.659a3,3,0,0,0-.486-1.606,2.335,2.335,0,0,0-1.5-.6l-1.948-.144v-.577h16.883v.577l-1.949.108a2.347,2.347,0,0,0-1.5.523,2.935,2.935,0,0,0-.487,1.642l-.071,1.659v17.28l.071,1.659a1.9,1.9,0,0,0,2.057,2.164l1.876.109Z" fill="#3f3e1e"/>
      <path id="Trazado_131809" data-name="Trazado 131809" d="M3315.506,242.926h-16.991v-.577c.168,0,.4-.006.685-.018s.764-.06,1.425-.145a2.192,2.192,0,0,0,1.407-.6,2.811,2.811,0,0,0,.523-1.587l.072-1.66V221.209l-.072-1.659a3.014,3.014,0,0,0-.487-1.606,2.336,2.336,0,0,0-1.5-.6l-1.948-.144v-.577h16.883v.577l-1.948.108a2.343,2.343,0,0,0-1.5.523,2.936,2.936,0,0,0-.488,1.642l-.071,1.659v17.28l.071,1.659a1.9,1.9,0,0,0,2.057,2.164l1.876.109Z" fill="#3f3e1e"/>
    </g>
    <ellipse id="Elipse_4604" data-name="Elipse 4604" cx="23.009" cy="2.504" rx="23.009" ry="2.504" transform="translate(3275.235 240.748)" fill="#3f3f3f" opacity="0.17"/>
  </g>
</svg>
